<svg width="61" height="48" viewBox="0 0 61 48" fill="none" xmlns="http://www.w3.org/2000/svg">
<g clip-path="url(#clip0_732_4994)">
<path d="M50.4331 40.6819L5.27152 45.6451C4.5706 45.6442 3.88484 45.441 3.29649 45.0602C2.70817 44.679 2.24228 44.1366 1.95476 43.4973C1.66725 42.8579 1.57031 42.1494 1.6756 41.4563C1.78088 40.7635 2.08391 40.1155 2.54831 39.5907C10.8427 30.1474 28.1483 9.62265 44.1995 9.62265C47.522 9.62188 50.7761 10.5664 53.5819 12.3458C63.5019 18.5827 60.4235 29.7794 57.5787 36.0259C56.9531 37.4006 55.9486 38.5686 54.6833 39.3933C53.4177 40.2179 51.9435 40.665 50.4331 40.6819Z" fill="#FFBC00"/>
<path d="M44.1385 4.784C27.0665 4.784 10.1641 23.488 0.672901 34.3264C0.243615 33.6618 0.0465805 32.8736 0.112579 32.0851C0.178578 31.2965 0.503893 30.5521 1.0377 29.968C9.3289 20.5216 26.6441 1.15009e-05 42.6857 1.15009e-05C46.0137 -0.00380198 49.2739 0.940819 52.0841 2.72321C54.68 4.29594 56.7136 6.64755 57.8953 9.4432C57.3551 9.00602 56.7887 8.60205 56.1993 8.2336C52.5887 5.97139 48.4121 4.77558 44.1513 4.784" fill="#FFBC00"/>
</g>
<defs>
<clipPath id="clip0_732_4994">
<rect width="60.8" height="48" fill="white" transform="translate(0.100098)"/>
</clipPath>
</defs>
</svg>
