<svg width="133" height="119" viewBox="0 0 133 119" fill="none" xmlns="http://www.w3.org/2000/svg">
<g clip-path="url(#clip0_725_4470)">
<path d="M133 119.084C133 119.084 102.643 119.084 87.7557 119.084L83.7067 115.684C79.6418 112.229 75.557 108.576 72.597 104.728C70.3308 101.782 68.8854 98.6066 67.6587 95.9113L67.5795 95.7375C65.5098 91.1918 63.7888 87.541 59.6548 84.3868C55.4507 81.179 48.2281 78.1329 34.4923 76.5179C25.3288 75.9188 18.6714 75.2348 14.1389 73.9517C9.80615 72.7252 6.80902 69.3727 5.0145 66.8289C1.71309 62.149 -0.203481 57.5064 -0.423089 53.0653C-0.548919 50.5207 -0.279724 47.8402 0.600037 45.535C1.44001 43.3341 3.27457 40.4852 6.80902 39.7783C13.0332 38.5335 17.6627 36.8681 20.8689 35.3525C24.1455 33.8036 25.7047 32.5223 26.047 32.1635C26.2561 31.9309 26.57 31.531 27.1492 30.7828L27.2092 30.7053C29.3845 27.8952 33.4265 22.6734 40.1481 18.7055C40.1364 15.5426 40.8834 12.5315 41.9029 9.99047C43.2853 6.54471 45.3846 3.42689 47.5866 1.52511L48.9064 0.385254H50.6504C53.0686 0.385254 55.2722 1.37146 56.9418 2.2846C58.6392 3.21291 60.432 4.44289 62.1058 5.59127L62.2263 5.67393C64.8767 7.49205 67.498 9.27957 70.3281 10.6331C73.6838 12.238 76.6497 13.0359 78.7375 13.4316C79.0099 13.4832 79.2669 13.5279 79.5074 13.5665C81.2368 11.5297 83.4068 9.99372 85.9332 9.0942C89.4156 7.85434 93.2199 7.94681 96.9514 9.09262C99.8862 9.99383 103.107 11.8191 105.47 15.6522C107.379 18.7481 108.524 22.827 108.838 28.1266C118.822 32.1636 124.51 35.548 133 41.4618C133 51.3306 133 93.6749 133 119.084Z" fill="#C6D1DD"/>
<path d="M80.2562 18.3956C80.2562 18.3956 75.6502 18.3731 68.3039 14.8597L67.519 14.4794C59.5232 15.4393 50.9784 17.6275 44.0715 21.8847C37.2013 25.4513 33.1585 30.6733 30.8538 33.6502C30.3072 34.3563 29.8583 34.9362 29.4926 35.3376C28.2818 36.6415 24.7263 39.1368 18.4381 41.4266C20.9172 47.0328 22.6033 56.6539 20.3874 59.0809C18.7491 60.8752 9.03321 59.7161 5.6449 59.2495C6.45488 61.2467 8.13861 64.4355 9.44422 65.8927C12.8816 69.729 17.6471 71.4589 29.2922 72.1547C38.0528 65.2301 59.6325 70.2372 77.2385 75.1905C84.2235 77.1558 90.6123 78.9532 95.379 79.7079C114.567 82.746 108.158 63.8441 104.518 53.1061C104.178 52.1052 103.863 51.1753 103.595 50.3406C100.448 40.5515 51.6776 52.2635 41.7137 55.0603C31.7498 57.8572 30.1765 48.2429 37.5183 44.0476C41.0742 42.0157 42.2518 39.6557 43.5336 37.0868C44.8983 34.3517 46.3812 31.3799 50.9784 28.3151C60.4518 21.9995 75.0254 18.8148 80.2562 18.3956Z" fill="white"/>
<path d="M53.4656 45.4424C56.7544 45.4424 59.4205 43.1441 59.4205 40.3089C59.4205 37.4737 56.7544 35.1754 53.4656 35.1754C50.1768 35.1754 47.5107 37.4737 47.5107 40.3089C47.5107 43.1441 50.1768 45.4424 53.4656 45.4424Z" fill="white"/>
</g>
<defs>
<clipPath id="clip0_725_4470">
<rect width="133" height="119" fill="white"/>
</clipPath>
</defs>
</svg>
