<svg width="192" height="141" viewBox="0 0 192 141" fill="none" xmlns="http://www.w3.org/2000/svg">
<path fill-rule="evenodd" clip-rule="evenodd" d="M72.3466 26.4936C72.2625 26.4737 72.1785 26.4498 72.0985 26.4259C71.018 26.0713 69.5133 25.406 67.7205 24.7208C63.3146 23.0317 57.256 21.2708 51.3774 23.2109C47.4277 24.5136 43.534 27.4696 40.2806 33.29C38.7759 35.991 38.7559 38.9748 39.6122 41.8909C40.8248 46.0381 43.8181 50.0378 46.4593 52.7428C47.5197 53.8264 49.9888 55.5674 51.5735 56.8979C7.66234 54.8104 -19.0173 110.619 16.3862 140.761C16.8064 141.119 17.4386 141.068 17.7987 140.653C18.1549 140.235 18.1069 139.606 17.6867 139.247C-16.6362 110.022 9.98331 55.659 52.9261 58.9775C53.7104 59.0372 54.1386 58.7823 54.3427 58.5711C54.6388 58.2604 54.7749 57.85 54.5949 57.3202C54.4588 56.9258 53.8985 56.2525 53.0381 55.5235C51.4974 54.2128 48.9644 52.448 47.8919 51.3524C45.4509 48.8546 42.6536 45.1696 41.5331 41.3372C40.8288 38.935 40.7928 36.477 42.0293 34.258C44.9666 28.9994 48.4401 26.2785 52.0096 25.0992C57.408 23.3185 62.9585 25.0315 67.0043 26.5772C69.1612 27.4059 70.9179 28.1947 72.0464 28.4855C72.8027 28.6807 73.379 28.6528 73.7472 28.5014C73.9352 28.4218 74.3075 28.1987 74.3955 27.625C74.4795 27.0673 74.1794 24.5535 74.1754 24.1312C74.1073 12.5822 82.4269 5.02484 93.3517 2.84172C111.66 -0.815404 122.544 7.96893 123.893 19.0399C125.074 28.7205 118.999 39.9269 104.561 45.9106C104.088 46.054 103.612 46.1975 103.136 46.3369C101.527 46.811 97.3655 48.1256 96.8093 48.3726C96.0329 48.7152 96.157 49.4442 96.181 49.5518C96.245 49.8107 96.4051 50.1852 96.9573 50.2968C97.0093 50.3087 97.2855 50.3326 97.8057 50.2052C100.491 49.5399 102.972 48.7231 105.253 47.783C107.734 47.034 110.203 46.2652 112.72 45.6318C123.049 43.0383 133.697 40.9986 144.378 42.1579C156.563 43.4765 172.15 49.8665 181.63 59.3599C186.272 64.009 189.446 69.3991 189.934 75.323C190.426 81.2429 188.217 87.6608 182.231 94.3695C181.862 94.7798 181.902 95.4093 182.315 95.7758C182.727 96.1423 183.359 96.1025 183.727 95.6921C190.166 88.4735 192.455 81.5297 191.927 75.1596C191.403 68.7895 188.041 62.9573 183.047 57.9576C173.259 48.1535 157.176 41.5403 144.594 40.1779C134.042 39.0345 123.525 40.9149 113.304 43.4327C122.973 36.6961 126.898 27.1588 125.878 18.8008C124.417 6.79766 112.804 -3.07418 92.9555 0.889701C81.0664 3.26404 72.1025 11.5702 72.1745 24.1431C72.1785 24.3901 72.2745 25.6371 72.3466 26.4936Z" fill="#8736D9"/>
</svg>
