<svg width="81" height="80" viewBox="0 0 81 80" fill="none" xmlns="http://www.w3.org/2000/svg">
<path d="M80.8622 40C80.8622 62.0914 62.9536 80 40.8622 80C18.7709 80 0.862244 62.0914 0.862244 40C0.862244 17.9086 18.7709 0 40.8622 0C62.9536 0 80.8622 17.9086 80.8622 40Z" fill="#26D97F"/>
<path d="M80.8647 40.0055C80.8647 56.4587 70.9308 70.5917 56.7337 76.7341L54.5741 74.9204C52.4061 73.0777 50.2275 71.1295 48.6487 69.0771C47.4401 67.5059 46.6692 65.8122 46.0149 64.3747L45.9727 64.282C44.8688 61.8576 43.9509 59.9104 41.746 58.2281C39.5038 56.5172 35.6516 54.8926 28.3256 54.0312C23.4383 53.7117 19.8876 53.3469 17.4702 52.6625C15.1593 52.0084 13.5608 50.2203 12.6037 48.8636C10.8429 46.3676 9.82065 43.8914 9.70352 41.5228C9.63641 40.1656 9.77999 38.736 10.2492 37.5065C10.6972 36.3326 11.6757 34.8132 13.5608 34.4362C16.8804 33.7722 19.3496 32.884 21.0596 32.0757C22.8071 31.2496 23.6388 30.5662 23.8213 30.3748C23.9329 30.2508 24.1003 30.0374 24.4092 29.6384L24.4412 29.5971C25.6014 28.0983 27.7572 25.3133 31.3421 23.197C31.3359 21.5101 31.7343 19.9041 32.2781 18.5488C33.0154 16.711 34.135 15.0482 35.3095 14.0338L36.0134 13.4259H36.9435C38.2333 13.4259 39.4086 13.9519 40.2991 14.4389C41.2044 14.934 42.1605 15.59 43.0533 16.2025L43.1176 16.2466C44.5311 17.2163 45.9292 18.1697 47.4386 18.8916C49.2284 19.7476 50.8103 20.1731 51.9238 20.3841C52.0691 20.4117 52.2061 20.4355 52.3344 20.4561C53.2568 19.3698 54.4141 18.5506 55.7616 18.0708C57.6189 17.4095 59.648 17.4589 61.6381 18.07C63.2035 18.5506 64.9214 19.5242 66.1817 21.5685C67.1997 23.2197 67.8104 25.3952 67.9777 28.2217C73.3027 30.3748 76.0544 32.0752 80.5825 35.2294C80.7688 36.7954 80.8647 38.3893 80.8647 40.0055Z" fill="#213345"/>
<path d="M52.7338 23.0317C52.7338 23.0317 50.2772 23.0197 46.359 21.1458L45.9404 20.943C41.6759 21.455 37.1185 22.6221 33.4347 24.8926C29.7705 26.7949 27.6143 29.58 26.3851 31.1678C26.0935 31.5444 25.8541 31.8536 25.6591 32.0677C25.0133 32.7632 23.117 34.094 19.7632 35.3153C21.0853 38.3053 21.9846 43.4368 20.8028 44.7312C19.929 45.6882 14.747 45.07 12.9399 44.8211C13.3719 45.8863 14.2699 47.5871 14.9662 48.3643C16.7996 50.4104 19.3412 51.333 25.5522 51.7041C30.2246 48.0109 41.7342 50.6814 51.1243 53.3233C54.8498 54.3714 58.2572 55.3301 60.7995 55.7326C71.0335 57.353 67.6155 47.2716 65.6737 41.5446C65.4927 41.0107 65.3245 40.5147 65.1815 40.0696C63.5033 34.8485 37.4914 41.0951 32.1771 42.5868C26.8629 44.0786 26.0238 38.9508 29.9396 36.7132C31.8361 35.6295 32.4642 34.3708 33.1478 33.0007C33.8757 31.5419 34.6666 29.9569 37.1185 28.3223C42.1711 24.9539 49.944 23.2553 52.7338 23.0317Z" fill="white"/>
<path d="M38.445 37.4571C40.1991 37.4571 41.6211 36.2313 41.6211 34.7192C41.6211 33.207 40.1991 31.9812 38.445 31.9812C36.6909 31.9812 35.269 33.207 35.269 34.7192C35.269 36.2313 36.6909 37.4571 38.445 37.4571Z" fill="white"/>
</svg>
