<svg width="51" height="51" viewBox="0 0 51 51" fill="none" xmlns="http://www.w3.org/2000/svg">
<path fill-rule="evenodd" clip-rule="evenodd" d="M20.2013 10.0504C20.0647 9.23982 19.9618 8.43848 19.8953 7.63705C19.7952 6.43491 19.8571 5.22358 19.8216 4.02143C19.8061 3.51143 19.7451 2.18181 19.7697 1.99056C19.9928 0.323951 21.3379 0.0689201 21.7313 0.0233844C21.9217 -0.003937 23.8761 -0.222411 24.2977 1.94509C24.815 4.59527 24.9808 7.26362 24.7977 9.87737C25.2248 12.0995 25.9553 14.3125 26.9197 16.3161C30.7574 24.2848 38.0705 25.059 45.9937 24.9861C47.2122 24.9679 48.2241 25.9241 48.2878 27.1354C48.3516 28.3557 47.4445 29.4121 46.2314 29.5214C41.8026 29.9495 33.9449 33.5013 31.2282 37.1988C30.66 37.9729 30.3294 39.8399 29.8922 41.6704C29.2821 44.2113 28.5562 46.7249 27.743 47.7813C27.6209 47.9452 26.1374 49.621 25.6948 49.8669C24.631 50.4497 23.7796 50.1127 23.296 49.8031C22.8124 49.4934 22.265 48.8832 22.0465 47.8723C21.8179 46.8159 22.0109 44.6484 21.9754 44.1839C21.8461 42.4991 21.5092 39.1932 20.8216 36.3518C20.4509 34.8218 20.0556 33.4102 19.4017 32.7089C16.9811 30.1134 13.1105 30.4959 9.85109 30.924C9.47678 30.9695 9.10248 31.0242 8.72909 31.0697C7.40218 31.4613 5.99327 31.7527 4.50425 31.9257C2.2557 32.1898 1.88597 30.1225 1.86594 29.9859C1.82404 29.6854 1.6683 28.1372 3.36314 27.5179C3.54801 27.4542 4.91227 27.1536 5.43776 27.0352C6.16997 26.8713 6.91037 26.7438 7.65351 26.6254C15.3299 24.2394 19.4992 17.5364 20.2013 10.0504ZM22.836 18.3288C25.7339 24.3213 30.1318 27.2174 35.3447 28.5288H35.3438C32.0889 30.2318 29.1281 32.3629 27.559 34.5031C26.9634 35.3137 26.417 36.9438 25.9243 38.7743C25.6574 37.0713 25.2968 35.2589 24.8205 33.7107C24.2786 31.9439 23.5491 30.4778 22.7349 29.6035C21.163 27.9187 19.1904 26.9806 17.0694 26.5161C19.6084 24.2667 21.5337 21.4617 22.836 18.3288Z" fill="#26D97F"/>
</svg>
