<svg width="701" height="41" viewBox="0 0 701 41" fill="none" xmlns="http://www.w3.org/2000/svg">
<path fill-rule="evenodd" clip-rule="evenodd" d="M297.372 4.04035C264.478 5.357 231.969 6.97595 200.269 8.74588C155.392 11.2497 110.534 13.8398 65.9453 17.9409C51.9099 19.236 37.6568 20.0561 23.7091 21.675C14.9537 22.6894 3.34411 24.1354 1.82051 24.4376C1.0236 24.6103 0.675935 24.8695 0.563595 24.9559C-0.226293 25.5602 -0.0821673 26.1428 0.363681 26.596C0.542722 26.7903 0.995464 27.2654 2.25226 27.3301C86.3034 31.7549 172.25 23.1211 256.403 22.2146C402.339 20.6605 552.699 26.8337 697.477 40.3024C698.74 40.4103 699.969 39.8706 700.145 39.0719C700.355 38.2949 699.443 37.5394 698.179 37.4315C553.156 23.9412 402.55 17.7464 256.333 19.3221C177.906 20.1639 97.9305 27.7402 19.3946 25.15C21.199 24.9342 22.9685 24.7183 24.5834 24.524C38.4749 22.9052 52.6682 22.1066 66.6475 20.8115C111.141 16.7105 155.908 14.1203 200.725 11.6381C256.333 8.52996 314.363 5.85347 372.85 4.60156C393.773 4.79582 414.626 4.99017 435.479 5.2276C480.591 5.74563 525.913 7.25655 570.919 9.2855C584.47 9.91145 598.021 10.5589 611.572 11.1201C616.066 11.3144 627.651 11.8755 629.266 11.8323C631.267 11.7891 631.653 10.7532 631.688 10.5805C631.793 10.192 631.723 9.65235 630.74 9.19907C630.634 9.13432 630.003 8.91834 628.598 8.78883C546.766 1.14792 459.387 -0.125367 372.921 1.70932C281.715 0.910689 190.158 0.565179 99.1839 0.198242C97.8815 0.198242 96.8177 0.845872 96.8072 1.6445C96.8002 2.44312 97.8498 3.09078 99.1522 3.11236C165.025 3.37137 231.232 3.63024 297.372 4.04035Z" fill="#26D97F"/>
</svg>
