<svg width="81" height="80" viewBox="0 0 81 80" fill="none" xmlns="http://www.w3.org/2000/svg">
<rect width="80" height="80" transform="translate(0.356445)" fill="white"/>
<path d="M32.6048 17.8834L14.272 49.6359L30.1495 58.8031L48.4824 27.0506L32.6048 17.8834Z" fill="#FBBC04"/>
<path d="M66.8159 49.6336L48.4815 17.8805C45.9503 13.4962 40.344 11.993 35.9596 14.5243C31.5753 17.0555 30.0721 22.6618 32.6034 27.0462L50.9378 58.7993C53.469 63.1837 59.0753 64.6836 63.4596 62.1555C67.844 59.6243 69.344 54.018 66.8159 49.6336Z" fill="#4285F4"/>
<path d="M22.213 63.3833C27.275 63.3833 31.3786 59.2797 31.3786 54.2176C31.3786 49.1556 27.275 45.052 22.213 45.052C17.151 45.052 13.0474 49.1556 13.0474 54.2176C13.0474 59.2797 17.151 63.3833 22.213 63.3833Z" fill="#34A853"/>
</svg>
