<svg width="80" height="80" viewBox="0 0 80 80" fill="none" xmlns="http://www.w3.org/2000/svg">
<rect width="80" height="80" fill="white"/>
<path d="M50.625 19.0625V60.3125C50.625 64.9281 53.8094 67.5 57.1875 67.5C60.3125 67.5 63.75 65.3125 63.75 60.3125V19.375C63.75 15.1437 60.625 12.5 57.1875 12.5C53.75 12.5 50.625 15.4156 50.625 19.0625Z" fill="#F9AB00"/>
<path d="M33.4375 40V60.3125C33.4375 64.9281 36.6219 67.5 40 67.5C43.125 67.5 46.5625 65.3125 46.5625 60.3125V40.3125C46.5625 36.0813 43.4375 33.4375 40 33.4375C36.5625 33.4375 33.4375 36.3531 33.4375 40Z" fill="#E37400"/>
<path d="M22.8125 67.5C26.4369 67.5 29.375 64.5619 29.375 60.9375C29.375 57.3131 26.4369 54.375 22.8125 54.375C19.1881 54.375 16.25 57.3131 16.25 60.9375C16.25 64.5619 19.1881 67.5 22.8125 67.5Z" fill="#E37400"/>
</svg>
