<svg width="81" height="80" viewBox="0 0 81 80" fill="none" xmlns="http://www.w3.org/2000/svg">
<rect width="80" height="80" transform="translate(0.633545)" fill="white"/>
<g clip-path="url(#clip0_701_2390)">
<path d="M67.2165 33.2442V62.3558C67.2165 64.2946 65.6471 65.8654 63.7069 65.8654H17.9336C15.9949 65.8654 14.4241 64.2945 14.4241 62.3558V33.2442C15.5171 33.891 16.7924 34.2618 18.1537 34.2618C20.0079 34.2618 21.7145 33.5698 23.0154 32.4181C24.3165 31.2679 25.209 29.6548 25.4335 27.8155L25.6837 25.7592C25.6475 26.0683 25.6279 26.3773 25.6279 26.6803C25.6279 30.8065 28.9822 34.2618 33.2243 34.2618C37.4198 34.2618 40.8208 30.8608 40.8208 26.6669C40.8208 30.8609 44.2203 34.2618 48.4157 34.2618C52.6609 34.2618 56.0137 30.8065 56.0137 26.6774C56.0137 26.3774 55.9956 26.0744 55.9579 25.7669L56.2081 27.8157C56.4327 29.6548 57.3251 31.2679 58.6247 32.4182C59.9258 33.5699 61.6338 34.2619 63.4865 34.2619C64.8482 34.2619 66.1236 33.891 67.2165 33.2442Z" fill="#518EF8"/>
<path d="M67.2166 38.9785V42.4955C66.1236 43.1423 64.8482 43.513 63.487 43.513C61.6342 43.513 59.9262 42.821 58.6252 41.6693C57.3257 40.5191 56.4332 38.906 56.2086 37.0668L55.9584 35.018C55.9961 35.3255 56.0142 35.6285 56.0142 35.9285C56.0142 40.0576 52.6614 43.5129 48.4162 43.5129C44.2208 43.5129 40.8213 40.1119 40.8213 35.918C40.8213 40.112 37.4203 43.5129 33.2248 43.5129C28.9826 43.5129 25.6284 40.0576 25.6284 35.9315C25.6284 35.6284 25.648 35.3194 25.6842 35.0104L25.434 37.0667C25.2093 38.9058 24.3169 40.5189 23.0159 41.6692C21.7149 42.8209 20.0084 43.5129 18.1542 43.5129C16.7929 43.5129 15.5175 43.142 14.4246 42.4954V38.9783C15.5176 39.6251 16.7929 39.9959 18.1542 39.9959C20.0084 39.9959 21.715 39.3039 23.0159 38.1522C24.3169 37.002 25.2094 35.3889 25.434 33.5496L25.6842 31.4933C25.648 31.8024 25.6284 32.1114 25.6284 32.4144C25.6284 36.5406 28.9826 39.9959 33.2248 39.9959C37.4203 39.9959 40.8213 36.5949 40.8213 32.401C40.8213 36.595 44.2208 39.9959 48.4162 39.9959C52.6614 39.9959 56.0142 36.5406 56.0142 32.4115C56.0142 32.1115 55.9961 31.8085 55.9584 31.501L56.2086 33.5498C56.4332 35.3889 57.3256 37.002 58.6252 38.1523C59.9262 39.304 61.6342 39.996 63.487 39.996C64.8484 39.9961 66.1237 39.6252 67.2166 38.9785Z" fill="#4786E2"/>
<path d="M55.9583 31.7272C55.996 32.0347 56.0141 32.3378 56.0141 32.6378C56.0141 36.7669 52.6613 40.2222 48.4161 40.2222C44.2207 40.2222 40.8212 36.8212 40.8212 32.6272L37.2031 23.797L40.8211 13.4074H53.7256L57.605 23.809L55.9568 31.7076C55.9583 31.7137 55.9583 31.7213 55.9583 31.7272Z" fill="#ACD1FC"/>
<path d="M27.9151 13.4076L31.2734 24.8235L25.6855 31.7076L25.4337 33.7759C25.2091 35.6151 24.3167 37.2281 23.0157 38.3785C21.7147 39.5302 20.0082 40.2222 18.1539 40.2222C16.7927 40.2222 15.5172 39.8513 14.4243 39.2046V39.2031C12.2668 37.9276 10.821 35.5773 10.821 32.8894V32.3452L15.8157 15.2398C16.1327 14.1539 17.1283 13.4076 18.2595 13.4076H27.9151Z" fill="#ACD1FC"/>
<path d="M67.2164 39.2046C66.1234 39.8514 64.8481 40.2222 63.4868 40.2222C61.6341 40.2222 59.9261 39.5302 58.6251 38.3785C57.3256 37.2283 56.4331 35.6152 56.2084 33.7759L55.9582 31.7271C55.9582 31.7212 55.9582 31.7135 55.9567 31.7076L53.7256 13.4076H63.3813C64.5123 13.4076 65.508 14.1539 65.8251 15.2397L70.821 32.3453V32.8895C70.821 35.5774 69.3738 37.9278 67.2164 39.2046Z" fill="#3A5BBC"/>
<path d="M40.8211 13.4077V32.6272C40.8211 36.8213 37.42 40.2222 33.2246 40.2222C28.9824 40.2222 25.6282 36.7669 25.6282 32.6407C25.6282 32.3377 25.6477 32.0287 25.684 31.7196C25.684 31.7151 25.6855 31.7121 25.6855 31.7076L27.9151 13.4076L40.8211 13.4077Z" fill="#3A5BBC"/>
<path d="M55.9039 61.8419C51.746 61.8419 48.3633 58.4591 48.3633 54.3012C48.3633 50.1433 51.746 46.7605 55.9039 46.7605C57.9189 46.7605 59.8129 47.5447 61.2367 48.9685L59.6378 50.5674C58.641 49.5706 57.315 49.0217 55.9041 49.0217C52.993 49.0217 50.6246 51.3899 50.6246 54.3011C50.6246 57.2122 52.993 59.5805 55.9041 59.5805C58.4271 59.5805 60.5425 57.8014 61.0615 55.4317H55.9039V53.1705H63.4446V54.3011C63.4446 58.459 60.0619 61.8419 55.9039 61.8419Z" fill="white"/>
</g>
<defs>
<clipPath id="clip0_701_2390">
<rect width="60" height="60" fill="white" transform="translate(10.821 9.63647)"/>
</clipPath>
</defs>
</svg>
