<svg width="81" height="80" viewBox="0 0 81 80" fill="none" xmlns="http://www.w3.org/2000/svg">
<rect width="80" height="80" transform="translate(0.633545)" fill="white"/>
<mask id="mask0_701_2390" style="mask-type:alpha" maskUnits="userSpaceOnUse" x="15" y="13" width="52" height="53">
<path d="M65.9373 34.9611H41.419V44.8962H55.5319C54.2163 51.2079 48.7147 54.8313 41.419 54.8313C32.8077 54.8313 25.8708 48.052 25.8708 39.6365C25.8708 31.2209 32.8077 24.4417 41.419 24.4417C45.1266 24.4417 48.4755 25.7274 51.1067 27.8313L58.7612 20.3508C54.0967 16.3767 48.1167 13.9222 41.419 13.9222C26.8276 13.9222 15.1067 25.3767 15.1067 39.6365C15.1067 53.8962 26.8276 65.3507 41.419 65.3507C54.5751 65.3507 66.5353 56.0001 66.5353 39.6365C66.5353 38.117 66.2961 36.4806 65.9373 34.9611Z" fill="white"/>
</mask>
<g mask="url(#mask0_701_2390)">
<path d="M12.7146 54.8313V24.4417L33.0468 39.6365L12.7146 54.8313Z" fill="#FBBC05"/>
<path d="M12.7146 24.4417L33.0468 39.6365L41.4189 32.5066L70.1232 27.9482V11.5845H12.7146V24.4417Z" fill="#EA4335"/>
<path d="M12.7146 54.8313L48.595 27.9482L58.0435 29.117L70.1232 11.5845V67.6884H12.7146V54.8313Z" fill="#34A853"/>
<path d="M70.1234 67.6884L33.047 39.6365L28.2629 36.13L70.1234 24.4417V67.6884Z" fill="#4285F4"/>
</g>
</svg>
