<svg width="81" height="80" viewBox="0 0 81 80" fill="none" xmlns="http://www.w3.org/2000/svg">
<rect width="80" height="80" transform="translate(0.723145)" fill="white"/>
<g clip-path="url(#clip0_701_2345)">
<path fill-rule="evenodd" clip-rule="evenodd" d="M27.7344 17.3392L32.1938 12.8797V21.3932H27.7344V17.3392ZM54.0857 17.3392L49.6263 12.8797V21.3932H54.0857V17.3392Z" fill="#7B7B7B"/>
<path d="M32.1948 12.8797H49.6273V17.1365H32.1948V12.8797Z" fill="#5A5A5A"/>
<path fill-rule="evenodd" clip-rule="evenodd" d="M66.0458 66.393H15.7755C14.4853 66.393 13.2479 65.8804 12.3355 64.9681C11.4232 64.0557 10.9106 62.8184 10.9106 61.5281V29.7521L19.2697 21.393H62.5516L70.9107 29.7521V61.5281C70.9107 62.8184 70.3981 64.0557 69.4858 64.9681C68.5734 65.8804 67.336 66.393 66.0458 66.393Z" fill="#E6E7E8"/>
<path fill-rule="evenodd" clip-rule="evenodd" d="M10.9106 38.6227V29.7521L19.2697 21.393H62.5516L70.9107 29.7521V38.6227H10.9106Z" fill="#D0D1D2"/>
<path fill-rule="evenodd" clip-rule="evenodd" d="M17.8025 66.393V31.9335C17.8025 31.3959 18.0161 30.8804 18.3962 30.5002C18.7763 30.1201 19.2919 29.9065 19.8295 29.9065H61.9917C62.5293 29.9065 63.0449 30.1201 63.425 30.5002C63.8051 30.8804 64.0187 31.3959 64.0187 31.9335V66.393H17.8025Z" fill="#458CF5"/>
<path d="M17.8027 38.6229H64.0189V66.3932H17.8027V38.6229Z" fill="white"/>
<path fill-rule="evenodd" clip-rule="evenodd" d="M50.2351 66.3932V58.0824L46.181 54.0284L43.5459 46.7311L45.3702 42.0689L55.708 52.4068L57.5324 44.704L64.0188 51.1905V66.3932H50.2351Z" fill="#D2D3D4"/>
<path d="M20.8438 41.866H36.2492V59.0958H20.8438V41.866ZM20.8438 62.9471H40.7086V66.3931H20.8438V62.9471Z" fill="#D2D3D4"/>
<path fill-rule="evenodd" clip-rule="evenodd" d="M54.0866 59.927V66.3932H45.5731V60.0188C43.8374 59.2289 42.3628 57.9608 41.3218 56.363C40.2809 54.7652 39.7167 52.9038 39.6954 50.997C39.6742 49.0901 40.1967 47.2167 41.2017 45.5961C42.2068 43.9754 43.6528 42.6747 45.3704 41.8463V51.3932L49.6272 54.0283L54.0866 51.3932V41.8459C55.7874 42.6663 57.2222 43.9498 58.2263 45.549C59.2304 47.1482 59.763 48.9982 59.763 50.8864C59.763 52.7747 59.2304 54.6247 58.2263 56.2239C57.2222 57.8231 55.7874 59.1066 54.0866 59.927V59.927Z" fill="#505050"/>
<path fill-rule="evenodd" clip-rule="evenodd" d="M22.5667 32.1365C22.9075 32.1365 23.2406 32.2376 23.524 32.4269C23.8073 32.6162 24.0281 32.8853 24.1585 33.2002C24.2889 33.515 24.3231 33.8614 24.2566 34.1956C24.1901 34.5299 24.026 34.8369 23.785 35.0778C23.5441 35.3188 23.2371 35.4829 22.9029 35.5494C22.5686 35.6158 22.2222 35.5817 21.9074 35.4513C21.5925 35.3209 21.3234 35.1001 21.1341 34.8167C20.9448 34.5334 20.8438 34.2003 20.8438 33.8595C20.8438 33.4025 21.0253 32.9643 21.3484 32.6412C21.6715 32.3181 22.1098 32.1365 22.5667 32.1365ZM27.6343 32.1365C27.9751 32.1365 28.3082 32.2376 28.5915 32.4269C28.8749 32.6162 29.0957 32.8853 29.2261 33.2002C29.3565 33.515 29.3906 33.8614 29.3242 34.1956C29.2577 34.5299 29.0936 34.8369 28.8526 35.0778C28.6116 35.3188 28.3046 35.4829 27.9704 35.5494C27.6362 35.6158 27.2898 35.5817 26.9749 35.4513C26.6601 35.3209 26.391 35.1001 26.2017 34.8167C26.0124 34.5334 25.9113 34.2003 25.9113 33.8595C25.9113 33.4025 26.0928 32.9643 26.416 32.6412C26.7391 32.3181 27.1773 32.1365 27.6343 32.1365V32.1365Z" fill="#E6E7E8"/>
</g>
<defs>
<clipPath id="clip0_701_2345">
<rect width="60" height="60" fill="white" transform="translate(10.9106 9.63647)"/>
</clipPath>
</defs>
</svg>
