<svg width="80" height="80" viewBox="0 0 80 80" fill="none" xmlns="http://www.w3.org/2000/svg">
<rect width="80" height="80" fill="white"/>
<path d="M40.6772 42.8125C42.2305 42.8125 43.4897 41.5533 43.4897 40C43.4897 38.4467 42.2305 37.1875 40.6772 37.1875C39.1239 37.1875 37.8647 38.4467 37.8647 40C37.8647 41.5533 39.1239 42.8125 40.6772 42.8125Z" fill="#41576C"/>
<path d="M55.6772 42.8125C57.2305 42.8125 58.4897 41.5533 58.4897 40C58.4897 38.4467 57.2305 37.1875 55.6772 37.1875C54.1239 37.1875 52.8647 38.4467 52.8647 40C52.8647 41.5533 54.1239 42.8125 55.6772 42.8125Z" fill="#41576C"/>
<path d="M25.6772 42.8125C27.2305 42.8125 28.4897 41.5533 28.4897 40C28.4897 38.4467 27.2305 37.1875 25.6772 37.1875C24.1239 37.1875 22.8647 38.4467 22.8647 40C22.8647 41.5533 24.1239 42.8125 25.6772 42.8125Z" fill="#41576C"/>
</svg>
