<svg width="81" height="80" viewBox="0 0 81 80" fill="none" xmlns="http://www.w3.org/2000/svg">
<rect width="80" height="80" transform="translate(0.910645)" fill="white"/>
<g clip-path="url(#clip0_701_2363)">
<path d="M62.8465 39.4102C62.8465 40.5209 62.2809 40.7009 60.8753 40.7009C59.3806 40.7009 59.1081 40.4524 58.9487 39.3194C58.6539 36.4397 56.7049 33.992 53.4413 33.7194C52.3991 33.6303 52.1489 33.2446 52.1489 31.9522C52.1489 30.7523 52.3306 30.185 53.2596 30.185C58.9264 30.2073 62.8482 34.7616 62.8482 39.4102H62.8465ZM71.0981 39.4102C71.0981 30.7729 65.2514 21.6385 51.7409 21.6385H24.9034C24.3583 21.6385 24.019 21.9111 24.019 22.4099C24.019 22.6807 24.2229 22.9309 24.4046 23.0664C25.3782 23.8377 26.8301 24.6982 28.7327 25.6512C30.5925 26.5802 32.0426 27.1922 33.4927 27.7818C34.1047 28.0304 34.3326 28.3029 34.3326 28.6423C34.3326 29.1188 33.9915 29.4136 33.335 29.4136H12.0289C11.393 29.4136 11.0981 29.8216 11.0981 30.2295C11.0981 30.5689 11.2113 30.8637 11.5061 31.1586C13.2288 32.9721 15.9936 35.149 20.008 37.6653C23.673 39.9406 27.4556 42.0209 31.3398 43.8977C31.9295 44.1702 32.1112 44.4873 32.1112 44.8267C32.0889 45.2124 31.7941 45.5295 31.1136 45.5295H21.3433C20.7999 45.5295 20.4828 45.8243 20.4828 46.2786C20.4828 46.5271 20.6868 46.8442 20.9593 47.0945C23.179 49.1119 26.7392 51.3111 31.477 53.3269C37.8019 56.0249 44.2144 57.6344 51.4238 57.6344C65.092 57.6344 71.0981 47.4116 71.0981 39.4102V39.4102ZM53.2596 52.1716C46.2781 52.1716 40.4296 46.4808 40.4296 39.3879C40.4296 32.4047 46.2558 26.7842 53.2596 26.7842C60.4228 26.7842 66.0433 32.3824 66.0433 39.3879C66.021 46.4825 60.4211 52.1716 53.2596 52.1716V52.1716Z" fill="#FF642D"/>
</g>
<defs>
<clipPath id="clip0_701_2363">
<rect width="60" height="60" fill="white" transform="translate(11.0981 9.63647)"/>
</clipPath>
</defs>
</svg>
