<svg width="19" height="19" viewBox="0 0 19 19" fill="none" xmlns="http://www.w3.org/2000/svg">
<path d="M18.8311 9.21436C18.8311 14.1849 14.8016 18.2144 9.83106 18.2144C4.86049 18.2144 0.831055 14.1849 0.831055 9.21436C0.831055 4.24379 4.86049 0.214355 9.83106 0.214355C14.8016 0.214355 18.8311 4.24379 18.8311 9.21436Z" fill="#26D97F"/>
<path d="M15.807 15.9442C17.6622 14.2956 18.8311 11.8915 18.8311 9.21443C18.8311 5.17248 16.1666 1.75286 12.4982 0.616211C12.3169 1.11787 12.1907 1.69322 12.1929 2.29425C10.759 3.14077 9.89663 4.25477 9.43256 4.8543L9.41977 4.87082C9.29619 5.03043 9.22922 5.11576 9.1846 5.16539C9.11159 5.24193 8.77894 5.51528 8.07992 5.84572C7.39592 6.16907 6.40826 6.52435 5.08039 6.78993C4.32635 6.94074 3.93496 7.54851 3.75576 8.01806C3.56807 8.50984 3.51064 9.0817 3.53749 9.62457C3.58434 10.572 3.99322 11.5625 4.69754 12.5609C5.08039 13.1036 5.71979 13.8188 6.64414 14.0805C7.6111 14.3542 9.0314 14.5001 10.9863 14.6279C13.3924 14.9108 14.8617 15.3996 15.807 15.9442Z" fill="#213345"/>
<path d="M17.6378 13.696C18.3969 12.3764 18.8311 10.8463 18.8311 9.21467C18.8311 9.03372 18.8257 8.85401 18.8152 8.67569C16.1366 9.1233 13.4871 9.78091 12.5269 10.0504C10.4012 10.6471 10.0656 8.59601 11.6319 7.70098C12.3905 7.26748 12.6417 6.764 12.9152 6.21596C13.2063 5.63246 13.5227 4.99845 14.5035 4.34461C15.1287 3.92777 15.8581 3.57487 16.6004 3.28358C16.1819 2.80627 15.7137 2.3736 15.2038 1.99365C14.4364 2.24058 13.6974 2.56139 13.03 2.97275C11.5643 3.73365 10.7018 4.84771 10.2101 5.4828C10.0935 5.63344 9.99771 5.75714 9.91971 5.84279C9.66139 6.12097 8.90286 6.65332 7.56134 7.14181C8.09021 8.33783 8.44993 10.3904 7.97719 10.9082C7.62769 11.291 5.55489 11.0437 4.83203 10.9442C5.00483 11.3702 5.36404 12.0505 5.64258 12.3614C6.37591 13.1798 7.39258 13.5489 9.87695 13.6973C11.3499 12.5331 14.5213 12.9498 17.6378 13.696Z" fill="white"/>
<path d="M16.3045 6.90337C16.3045 7.50822 15.7357 7.99855 15.0341 7.99855C14.3325 7.99855 13.7637 7.50822 13.7637 6.90337C13.7637 6.29851 14.3325 5.80818 15.0341 5.80818C15.7357 5.80818 16.3045 6.29851 16.3045 6.90337Z" fill="white"/>
</svg>
