<svg width="130" height="54" viewBox="0 0 130 54" fill="none" xmlns="http://www.w3.org/2000/svg">
<path fill-rule="evenodd" clip-rule="evenodd" d="M24.0949 42.449C24.4488 41.3153 24.748 40.3369 24.9034 39.819C25.8415 36.6653 29.1218 29.1149 29.6138 23.0952C29.9908 18.5028 28.7506 14.7851 24.5179 13.7434C20.6707 12.7968 16.7861 15.1361 13.3446 19.3516C5.93805 28.4243 0.321271 46.0804 0.00187222 51.8526C-0.0326574 52.4828 0.447877 53.0208 1.07804 53.0553C1.70533 53.0899 2.24339 52.6093 2.27792 51.9792C2.58581 46.4401 8.00123 29.5033 15.1114 20.7932C17.8911 17.3892 20.8663 15.1937 23.974 15.9591C27.0414 16.713 27.614 19.5789 27.3407 22.9081C26.863 28.7667 23.6316 36.0984 22.7166 39.1687C22.144 41.0937 19.7528 48.3737 19.6981 49.0471C19.629 49.8902 20.2305 50.1721 20.4348 50.2498C20.593 50.3102 21.4015 50.5606 21.9051 49.6542C29.093 36.7343 49.0655 21.8838 70.3415 15.9648C91.4304 10.0977 113.866 13.0471 126.262 35.8165C126.564 36.3689 127.258 36.5732 127.81 36.2739C128.363 35.9718 128.567 35.2784 128.265 34.7259C115.276 10.8688 91.8246 7.62015 69.7314 13.7664C51.1114 18.9459 33.5042 30.8298 24.0949 42.449Z" fill="#26D97F"/>
<path fill-rule="evenodd" clip-rule="evenodd" d="M126.459 34.1762C123.97 33.1576 121.524 32.0641 118.955 31.2383C112.109 29.037 104.53 28.1996 97.4258 29.4657C96.8042 29.578 96.3927 30.1707 96.502 30.7894C96.6142 31.4109 97.207 31.8224 97.8257 31.713C104.568 30.5074 111.761 31.3217 118.256 33.4107C121.196 34.3574 123.976 35.6609 126.845 36.7917C126.989 36.8464 128.22 37.3759 128.511 37.4162C129.187 37.514 129.53 37.1227 129.665 36.9213C129.78 36.7544 129.878 36.527 129.886 36.222C129.892 35.9717 129.791 35.494 129.521 34.884C128.661 32.9273 125.999 28.6514 125.636 27.9033C121.478 19.3284 119.05 10.6529 116.264 1.58312C116.077 0.98173 115.439 0.642153 114.837 0.826311C114.236 1.01047 113.899 1.64932 114.083 2.25071C116.903 11.4356 119.375 20.2176 123.585 28.896C123.832 29.4111 125.36 32.1878 126.459 34.1762Z" fill="#26D97F"/>
</svg>
