<svg width="52" height="150" viewBox="0 0 52 150" fill="none" xmlns="http://www.w3.org/2000/svg">
<path fill-rule="evenodd" clip-rule="evenodd" d="M13.9185 64.7836C10.4237 64.0796 7.32237 62.1473 4.97501 58.6265C-2.28594 47.7346 0.144626 36.9313 7.11542 27.5563C17.2944 13.8676 37.2866 3.28603 49.8107 0.198508C50.4037 0.0515908 51.0018 0.415078 51.1466 1.00629C51.2935 1.59929 50.9321 2.19908 50.3391 2.346C38.1832 5.34192 18.768 15.5919 8.88817 28.8763C2.48784 37.4846 0.1456 47.3971 6.81599 57.4002C8.79911 60.3787 11.4218 62.0005 14.3752 62.6034C14.7988 60.6795 15.2713 58.7928 15.7929 56.9474C17.2341 51.8537 23.3661 39.4991 30.6299 32.7259C35.8418 27.8685 41.6275 25.8813 46.7913 30.4545C49.6609 32.9972 50.25 36.6084 49.1072 40.6089C47.5392 46.1097 42.5978 52.4065 36.4121 57.2224C31.2627 61.2328 25.2652 64.2146 19.7066 64.9286C18.4847 65.0831 17.2833 65.1347 16.115 65.0646C10.7454 91.8595 14.9898 124.69 28.0701 148.009C28.3661 148.542 28.1795 149.215 27.6453 149.513C27.1132 149.813 26.4392 149.623 26.1413 149.092C12.8495 125.391 8.50522 92.0515 13.9185 64.7836ZM16.5799 62.8658C16.9821 61.0586 17.4289 59.2851 17.9205 57.5493C19.3032 52.6686 25.1776 40.8334 32.1375 34.3441C36.4082 30.3611 41.0941 28.3613 45.3264 32.1093C47.5479 34.079 47.8644 36.9043 46.9831 40.0027C46.0101 43.4102 43.6165 47.1221 40.4359 50.5524C35.6071 55.7604 28.9588 60.3118 22.5395 62.095C20.5061 62.661 18.4954 62.9437 16.5799 62.8658Z" fill="#26D97F"/>
<path fill-rule="evenodd" clip-rule="evenodd" d="M36.1897 107.588C29.5396 118.976 27.1514 135.041 28.0058 148.269C28.0452 148.877 27.5824 149.403 26.974 149.442C26.3657 149.482 25.8383 149.021 25.7989 148.413C24.9163 134.771 27.4257 118.215 34.2806 106.474C34.587 105.949 35.2644 105.77 35.7923 106.079C36.3181 106.385 36.4961 107.062 36.1897 107.588Z" fill="#26D97F"/>
<path fill-rule="evenodd" clip-rule="evenodd" d="M25.5399 148.5C21.7362 138.2 11.0172 128.223 1.07709 123.483C0.525476 123.221 0.289501 122.56 0.554225 122.01C0.816814 121.459 1.47541 121.225 2.02702 121.488C12.4402 126.453 23.628 136.944 27.6132 147.734C27.8255 148.306 27.5309 148.943 26.9595 149.156C26.3859 149.366 25.7504 149.073 25.5399 148.5Z" fill="#26D97F"/>
</svg>
