<svg width="68" height="186" viewBox="0 0 68 186" fill="none" xmlns="http://www.w3.org/2000/svg">
<path fill-rule="evenodd" clip-rule="evenodd" d="M11.7193 0.4939C1.65594 16.5429 -0.923258 39.0602 1.953 62.2872C6.2547 96.9908 22.7092 133.266 44.1316 151.738C44.5777 152.113 45.2468 152.062 45.6219 151.626C46.0072 151.18 45.9565 150.521 45.5104 150.136C24.4226 131.948 8.28238 96.2 4.05468 62.0236C1.23925 39.3238 3.66938 17.3033 13.5137 1.61924C13.828 1.12246 13.676 0.473668 13.1792 0.159378C12.6926 -0.144773 12.0336 -0.00288003 11.7193 0.4939Z" fill="#26D97F"/>
<path fill-rule="evenodd" clip-rule="evenodd" d="M62.3228 179.965C50.4609 168.631 41.1944 157.478 25.0135 150.939C24.4661 150.726 23.8477 150.98 23.6347 151.527C23.4117 152.064 23.6753 152.683 24.2126 152.896C42.0156 160.094 51.2821 173.01 65.121 185.46C65.8712 186.129 66.4998 185.714 66.6417 185.602C66.8546 185.44 67.1385 185.116 67.0371 184.548C67.0169 184.436 66.9458 184.223 66.8038 183.939C66.52 183.402 65.8509 182.358 65.5974 181.861C64.8776 180.421 64.1984 178.972 63.4786 177.532C61.4205 173.416 59.413 169.29 57.7098 165.021C51.3125 149.064 45.9798 136.056 52.59 119.53C52.813 118.983 52.5493 118.375 52.0019 118.152C51.4645 117.939 50.8461 118.202 50.6332 118.74C43.7898 135.833 49.1328 149.307 55.743 165.812C57.4766 170.131 59.5043 174.318 61.5827 178.475C61.8361 178.972 62.0794 179.468 62.3228 179.965Z" fill="#26D97F"/>
</svg>
