<svg width="428" height="325" viewBox="0 0 428 325" fill="none" xmlns="http://www.w3.org/2000/svg">
<rect width="428" height="325" fill="white"/>
<rect x="0.910568" y="236.636" width="88" height="88" rx="8" fill="#F1F5F8"/>
<g clip-path="url(#clip0_2_51)">
<path d="M66.6589 280.41C66.6589 281.521 66.0933 281.701 64.6877 281.701C63.193 281.701 62.9205 281.452 62.7611 280.319C62.4663 277.44 60.5174 274.992 57.2537 274.719C56.2116 274.63 55.9613 274.245 55.9613 272.952C55.9613 271.752 56.143 271.185 57.072 271.185C62.7388 271.207 66.6607 275.762 66.6607 280.41H66.6589ZM74.9106 280.41C74.9106 271.773 69.0638 262.639 55.5534 262.639H28.7158C28.1708 262.639 27.8314 262.911 27.8314 263.41C27.8314 263.681 28.0354 263.931 28.217 264.066C29.1907 264.838 30.6425 265.698 32.5451 266.651C34.4049 267.58 35.855 268.192 37.3052 268.782C37.9171 269.03 38.1451 269.303 38.1451 269.642C38.1451 270.119 37.804 270.414 37.1475 270.414H15.8413C15.2054 270.414 14.9106 270.822 14.9106 271.23C14.9106 271.569 15.0237 271.864 15.3185 272.159C17.0412 273.972 19.806 276.149 23.8204 278.665C27.4855 280.941 31.268 283.021 35.1523 284.898C35.7419 285.17 35.9236 285.487 35.9236 285.827C35.9013 286.212 35.6065 286.53 34.926 286.53H25.1557C24.6123 286.53 24.2952 286.824 24.2952 287.279C24.2952 287.527 24.4992 287.844 24.7717 288.094C26.9915 290.112 30.5516 292.311 35.2894 294.327C41.6144 297.025 48.0268 298.634 55.2362 298.634C68.9044 298.634 74.9106 288.412 74.9106 280.41V280.41ZM57.072 293.172C50.0905 293.172 44.2421 287.481 44.2421 280.388C44.2421 273.405 50.0683 267.784 57.072 267.784C64.2352 267.784 69.8557 273.382 69.8557 280.388C69.8334 287.483 64.2335 293.172 57.072 293.172V293.172Z" fill="#FF642D"/>
</g>
<rect x="0.910568" y="118.636" width="88" height="88" rx="8" fill="#F1F5F8"/>
<mask id="mask0_2_51" style="mask-type:alpha" maskUnits="userSpaceOnUse" x="19" y="136" width="52" height="53">
<path d="M70.0269 157.961H45.5086V167.896H59.6215C58.3059 174.208 52.8043 177.831 45.5086 177.831C36.8973 177.831 29.9604 171.052 29.9604 162.636C29.9604 154.221 36.8973 147.442 45.5086 147.442C49.2162 147.442 52.5651 148.727 55.1963 150.831L62.8508 143.351C58.1863 139.377 52.2063 136.922 45.5086 136.922C30.9172 136.922 19.1963 148.377 19.1963 162.636C19.1963 176.896 30.9172 188.351 45.5086 188.351C58.6647 188.351 70.6249 179 70.6249 162.636C70.6249 161.117 70.3857 159.481 70.0269 157.961Z" fill="white"/>
</mask>
<g mask="url(#mask0_2_51)">
<path d="M16.8042 177.831V147.442L37.1364 162.636L16.8042 177.831Z" fill="#FBBC05"/>
<path d="M16.8042 147.442L37.1364 162.636L45.5085 155.507L74.2128 150.948V134.585H16.8042V147.442Z" fill="#EA4335"/>
<path d="M16.8042 177.831L52.6845 150.948L62.1331 152.117L74.2128 134.585V190.688H16.8042V177.831Z" fill="#34A853"/>
<path d="M74.2129 190.688L37.1365 162.636L32.3524 159.13L74.2129 147.442V190.688Z" fill="#4285F4"/>
</g>
<rect x="0.910568" y="0.636475" width="88" height="88" rx="8" fill="#F1F5F8"/>
<path d="M55.1606 23.7898V65.0398C55.1606 69.6554 58.3449 72.2273 61.7231 72.2273C64.8481 72.2273 68.2856 70.0398 68.2856 65.0398V24.1023C68.2856 19.871 65.1606 17.2273 61.7231 17.2273C58.2856 17.2273 55.1606 20.1429 55.1606 23.7898Z" fill="#F9AB00"/>
<path d="M37.9731 44.7273V65.0398C37.9731 69.6554 41.1574 72.2273 44.5356 72.2273C47.6606 72.2273 51.0981 70.0398 51.0981 65.0398V45.0398C51.0981 40.8085 47.9731 38.1648 44.5356 38.1648C41.0981 38.1648 37.9731 41.0804 37.9731 44.7273Z" fill="#E37400"/>
<path d="M27.3481 72.2273C30.9724 72.2273 33.9106 69.2892 33.9106 65.6648C33.9106 62.0404 30.9724 59.1023 27.3481 59.1023C23.7237 59.1023 20.7856 62.0404 20.7856 65.6648C20.7856 69.2892 23.7237 72.2273 27.3481 72.2273Z" fill="#E37400"/>
<path d="M102.25 18.5071C102.167 18.2386 102.053 17.9983 101.907 17.7862C101.765 17.5708 101.592 17.3868 101.39 17.2344C101.191 17.0819 100.962 16.9676 100.704 16.8913C100.445 16.8118 100.164 16.772 99.8588 16.772C99.3119 16.772 98.8247 16.9096 98.3971 17.1847C97.9695 17.4598 97.6331 17.8641 97.3879 18.3977C97.1459 18.928 97.0249 19.5743 97.0249 20.3366C97.0249 21.1056 97.1459 21.7569 97.3879 22.2905C97.6298 22.8241 97.9662 23.2301 98.3971 23.5085C98.828 23.7836 99.3285 23.9212 99.8985 23.9212C100.416 23.9212 100.863 23.8217 101.241 23.6229C101.622 23.424 101.915 23.1423 102.121 22.7777C102.326 22.4098 102.429 21.9789 102.429 21.4851L102.847 21.5497H100.082V20.108H104.214V21.331C104.214 22.2027 104.028 22.9567 103.657 23.593C103.286 24.2294 102.775 24.7199 102.126 25.0646C101.476 25.406 100.73 25.5767 99.8886 25.5767C98.9506 25.5767 98.127 25.3662 97.4177 24.9453C96.7117 24.5211 96.1599 23.9195 95.7622 23.1406C95.3677 22.3584 95.1705 21.4304 95.1705 20.3565C95.1705 19.5346 95.2865 18.8004 95.5186 18.1541C95.7539 17.5078 96.082 16.9593 96.5029 16.5085C96.9239 16.0545 97.4177 15.7098 97.9845 15.4744C98.5512 15.2358 99.1677 15.1165 99.8339 15.1165C100.397 15.1165 100.923 15.1993 101.41 15.3651C101.897 15.5275 102.33 15.7595 102.707 16.0611C103.089 16.3627 103.402 16.7206 103.647 17.1349C103.892 17.5492 104.053 18.0066 104.129 18.5071H102.25ZM109.249 25.5866C108.503 25.5866 107.857 25.4226 107.31 25.0945C106.763 24.7663 106.339 24.3073 106.037 23.7173C105.739 23.1274 105.59 22.438 105.59 21.6491C105.59 20.8603 105.739 20.1693 106.037 19.576C106.339 18.9827 106.763 18.522 107.31 18.1939C107.857 17.8658 108.503 17.7017 109.249 17.7017C109.995 17.7017 110.641 17.8658 111.188 18.1939C111.735 18.522 112.157 18.9827 112.456 19.576C112.757 20.1693 112.908 20.8603 112.908 21.6491C112.908 22.438 112.757 23.1274 112.456 23.7173C112.157 24.3073 111.735 24.7663 111.188 25.0945C110.641 25.4226 109.995 25.5866 109.249 25.5866ZM109.259 24.1449C109.663 24.1449 110.001 24.0339 110.273 23.8118C110.545 23.5864 110.747 23.2848 110.88 22.907C111.015 22.5291 111.083 22.1082 111.083 21.6442C111.083 21.1768 111.015 20.7543 110.88 20.3764C110.747 19.9953 110.545 19.692 110.273 19.4666C110.001 19.2412 109.663 19.1286 109.259 19.1286C108.844 19.1286 108.5 19.2412 108.225 19.4666C107.953 19.692 107.749 19.9953 107.613 20.3764C107.481 20.7543 107.414 21.1768 107.414 21.6442C107.414 22.1082 107.481 22.5291 107.613 22.907C107.749 23.2848 107.953 23.5864 108.225 23.8118C108.5 24.0339 108.844 24.1449 109.259 24.1449ZM117.766 25.5866C117.021 25.5866 116.374 25.4226 115.828 25.0945C115.281 24.7663 114.856 24.3073 114.555 23.7173C114.256 23.1274 114.107 22.438 114.107 21.6491C114.107 20.8603 114.256 20.1693 114.555 19.576C114.856 18.9827 115.281 18.522 115.828 18.1939C116.374 17.8658 117.021 17.7017 117.766 17.7017C118.512 17.7017 119.158 17.8658 119.705 18.1939C120.252 18.522 120.675 18.9827 120.973 19.576C121.275 20.1693 121.426 20.8603 121.426 21.6491C121.426 22.438 121.275 23.1274 120.973 23.7173C120.675 24.3073 120.252 24.7663 119.705 25.0945C119.158 25.4226 118.512 25.5866 117.766 25.5866ZM117.776 24.1449C118.181 24.1449 118.519 24.0339 118.791 23.8118C119.062 23.5864 119.265 23.2848 119.397 22.907C119.533 22.5291 119.601 22.1082 119.601 21.6442C119.601 21.1768 119.533 20.7543 119.397 20.3764C119.265 19.9953 119.062 19.692 118.791 19.4666C118.519 19.2412 118.181 19.1286 117.776 19.1286C117.362 19.1286 117.017 19.2412 116.742 19.4666C116.47 19.692 116.267 19.9953 116.131 20.3764C115.998 20.7543 115.932 21.1768 115.932 21.6442C115.932 22.1082 115.998 22.5291 116.131 22.907C116.267 23.2848 116.47 23.5864 116.742 23.8118C117.017 24.0339 117.362 24.1449 117.776 24.1449ZM126.274 28.4602C125.628 28.4602 125.073 28.3724 124.609 28.1967C124.145 28.0244 123.772 27.7924 123.49 27.5007C123.208 27.209 123.013 26.8859 122.903 26.5312L124.524 26.1385C124.597 26.2876 124.703 26.4351 124.842 26.581C124.981 26.7301 125.169 26.8527 125.404 26.9489C125.643 27.0483 125.943 27.098 126.304 27.098C126.814 27.098 127.237 26.9737 127.572 26.7251C127.906 26.4799 128.074 26.0755 128.074 25.5121V24.0653H127.984C127.891 24.2509 127.756 24.4415 127.577 24.6371C127.401 24.8326 127.167 24.9967 126.876 25.1293C126.587 25.2618 126.224 25.3281 125.787 25.3281C125.2 25.3281 124.668 25.1906 124.191 24.9155C123.717 24.6371 123.339 24.2228 123.057 23.6726C122.779 23.1191 122.64 22.4264 122.64 21.5945C122.64 20.7559 122.779 20.0483 123.057 19.4716C123.339 18.8916 123.719 18.4524 124.196 18.1541C124.673 17.8525 125.205 17.7017 125.792 17.7017C126.239 17.7017 126.607 17.7779 126.896 17.9304C127.187 18.0795 127.419 18.2602 127.592 18.4723C127.764 18.6811 127.895 18.8783 127.984 19.0639H128.084V17.8011H129.859V25.5618C129.859 26.2147 129.703 26.755 129.391 27.1825C129.08 27.6101 128.654 27.9299 128.114 28.142C127.573 28.3542 126.96 28.4602 126.274 28.4602ZM126.289 23.9162C126.67 23.9162 126.995 23.8234 127.263 23.6378C127.532 23.4522 127.736 23.1854 127.875 22.8374C128.014 22.4893 128.084 22.0717 128.084 21.5845C128.084 21.1039 128.014 20.683 127.875 20.3217C127.739 19.9605 127.537 19.6804 127.268 19.4815C127.003 19.2794 126.677 19.1783 126.289 19.1783C125.888 19.1783 125.553 19.2827 125.285 19.4915C125.016 19.7003 124.814 19.987 124.678 20.3516C124.542 20.7128 124.474 21.1238 124.474 21.5845C124.474 22.0518 124.542 22.4612 124.678 22.8125C124.817 23.1605 125.021 23.4323 125.29 23.6278C125.561 23.8201 125.895 23.9162 126.289 23.9162ZM133.503 15.2557V25.4375H131.703V15.2557H133.503ZM138.734 25.5866C137.968 25.5866 137.307 25.4276 136.75 25.1094C136.197 24.7879 135.771 24.3338 135.473 23.7472C135.174 23.1572 135.025 22.4628 135.025 21.6641C135.025 20.8786 135.174 20.1892 135.473 19.5959C135.774 18.9993 136.195 18.5353 136.736 18.2038C137.276 17.8691 137.91 17.7017 138.64 17.7017C139.11 17.7017 139.554 17.7779 139.972 17.9304C140.393 18.0795 140.764 18.3116 141.086 18.6264C141.41 18.9413 141.666 19.3423 141.851 19.8295C142.037 20.3134 142.13 20.8902 142.13 21.5597V22.1115H135.87V20.8984H140.405C140.401 20.5537 140.327 20.2472 140.181 19.9787C140.035 19.7069 139.831 19.4931 139.569 19.3374C139.311 19.1816 139.009 19.1037 138.665 19.1037C138.297 19.1037 137.973 19.1932 137.695 19.3722C137.417 19.5478 137.2 19.7798 137.044 20.0682C136.891 20.3532 136.813 20.6664 136.81 21.0078V22.0668C136.81 22.5109 136.891 22.892 137.054 23.2102C137.216 23.5251 137.443 23.767 137.735 23.9361C138.026 24.1018 138.368 24.1847 138.759 24.1847C139.021 24.1847 139.258 24.1482 139.47 24.0753C139.682 23.9991 139.866 23.888 140.022 23.7422C140.178 23.5964 140.295 23.4157 140.375 23.2003L142.055 23.3892C141.949 23.8333 141.747 24.2211 141.449 24.5526C141.154 24.8807 140.776 25.1359 140.315 25.3182C139.854 25.4972 139.327 25.5866 138.734 25.5866ZM96.7366 42.4375H94.7678L98.3524 32.2557H100.629L104.219 42.4375H102.25L99.5306 34.3438H99.4511L96.7366 42.4375ZM96.8012 38.4453H102.171V39.9268H96.8012V38.4453ZM107.28 37.9631V42.4375H105.48V34.8011H107.201V36.0987H107.29C107.466 35.6712 107.746 35.3314 108.13 35.0795C108.518 34.8277 108.997 34.7017 109.567 34.7017C110.094 34.7017 110.553 34.8144 110.944 35.0398C111.339 35.2652 111.643 35.5916 111.859 36.0192C112.078 36.4467 112.185 36.9654 112.182 37.5753V42.4375H110.382V37.8537C110.382 37.3433 110.25 36.9439 109.985 36.6555C109.723 36.3672 109.36 36.223 108.896 36.223C108.581 36.223 108.301 36.2926 108.056 36.4318C107.814 36.5677 107.623 36.7649 107.484 37.0234C107.348 37.282 107.28 37.5952 107.28 37.9631ZM116.209 42.5916C115.725 42.5916 115.289 42.5054 114.902 42.3331C114.517 42.1574 114.212 41.8989 113.987 41.5575C113.765 41.2161 113.654 40.7952 113.654 40.2947C113.654 39.8639 113.733 39.5076 113.892 39.2259C114.051 38.9441 114.268 38.7188 114.544 38.5497C114.819 38.3807 115.129 38.2531 115.473 38.1669C115.821 38.0774 116.181 38.0128 116.552 37.973C117 37.9266 117.362 37.8852 117.641 37.8487C117.919 37.8089 118.121 37.7493 118.247 37.6697C118.377 37.5869 118.441 37.4593 118.441 37.2869V37.2571C118.441 36.8826 118.33 36.5926 118.108 36.3871C117.886 36.1816 117.566 36.0788 117.149 36.0788C116.708 36.0788 116.358 36.175 116.1 36.3672C115.844 36.5594 115.672 36.7865 115.583 37.0483L113.902 36.8097C114.035 36.3456 114.254 35.9579 114.559 35.6463C114.863 35.3314 115.236 35.0961 115.677 34.9403C116.118 34.7812 116.605 34.7017 117.139 34.7017C117.507 34.7017 117.873 34.7448 118.237 34.831C118.602 34.9171 118.935 35.0597 119.237 35.2585C119.538 35.4541 119.78 35.7209 119.963 36.0589C120.148 36.397 120.241 36.8196 120.241 37.3267V42.4375H118.511V41.3885H118.451C118.342 41.6006 118.188 41.7995 117.989 41.9851C117.793 42.1674 117.546 42.3149 117.248 42.4276C116.953 42.5369 116.607 42.5916 116.209 42.5916ZM116.676 41.2692C117.038 41.2692 117.351 41.1979 117.616 41.0554C117.881 40.9096 118.085 40.7173 118.228 40.4787C118.373 40.2401 118.446 39.9799 118.446 39.6982V38.7983C118.39 38.8447 118.294 38.8878 118.158 38.9276C118.025 38.9673 117.876 39.0021 117.71 39.032C117.545 39.0618 117.381 39.0883 117.218 39.1115C117.056 39.1347 116.915 39.1546 116.796 39.1712C116.527 39.2076 116.287 39.2673 116.075 39.3501C115.863 39.433 115.695 39.549 115.573 39.6982C115.45 39.844 115.389 40.0329 115.389 40.2649C115.389 40.5964 115.51 40.8466 115.752 41.0156C115.994 41.1847 116.302 41.2692 116.676 41.2692ZM123.85 32.2557V42.4375H122.051V32.2557H123.85ZM126.82 45.3011C126.574 45.3011 126.347 45.2813 126.139 45.2415C125.933 45.205 125.769 45.1619 125.646 45.1122L126.064 43.7102C126.326 43.7865 126.56 43.8229 126.765 43.8196C126.97 43.8163 127.151 43.7517 127.307 43.6257C127.466 43.5031 127.6 43.2976 127.71 43.0092L127.864 42.5966L125.095 34.8011H127.004L128.764 40.5682H128.843L130.608 34.8011H132.522L129.465 43.3622C129.322 43.7666 129.133 44.1129 128.898 44.4013C128.662 44.6929 128.374 44.915 128.033 45.0675C127.695 45.2232 127.29 45.3011 126.82 45.3011ZM137.581 34.8011V36.1932H133.191V34.8011H137.581ZM134.275 32.9716H136.074V40.1406C136.074 40.3826 136.111 40.5682 136.184 40.6974C136.26 40.8234 136.359 40.9096 136.482 40.956C136.605 41.0024 136.741 41.0256 136.89 41.0256C137.002 41.0256 137.105 41.0173 137.198 41.0007C137.294 40.9841 137.367 40.9692 137.417 40.956L137.72 42.3629C137.624 42.3961 137.486 42.4325 137.307 42.4723C137.132 42.5121 136.916 42.5353 136.661 42.5419C136.21 42.5552 135.804 42.4872 135.443 42.3381C135.082 42.1856 134.795 41.9503 134.583 41.6321C134.374 41.3139 134.271 40.9162 134.275 40.4389V32.9716ZM139.086 42.4375V34.8011H140.886V42.4375H139.086ZM139.991 33.7173C139.706 33.7173 139.46 33.6229 139.255 33.4339C139.049 33.2417 138.947 33.0114 138.947 32.7429C138.947 32.4711 139.049 32.2408 139.255 32.0518C139.46 31.8596 139.706 31.7635 139.991 31.7635C140.279 31.7635 140.524 31.8596 140.726 32.0518C140.932 32.2408 141.035 32.4711 141.035 32.7429C141.035 33.0114 140.932 33.2417 140.726 33.4339C140.524 33.6229 140.279 33.7173 139.991 33.7173ZM146.067 42.5866C145.305 42.5866 144.65 42.4193 144.103 42.0845C143.56 41.7498 143.141 41.2874 142.846 40.6974C142.554 40.1042 142.408 39.4214 142.408 38.6491C142.408 37.8736 142.557 37.1892 142.856 36.5959C143.154 35.9993 143.575 35.5353 144.118 35.2038C144.665 34.8691 145.312 34.7017 146.057 34.7017C146.677 34.7017 147.226 34.8161 147.703 35.0447C148.183 35.2701 148.566 35.59 148.851 36.0043C149.136 36.4152 149.299 36.8958 149.339 37.446H147.618C147.549 37.0781 147.383 36.7715 147.121 36.5263C146.863 36.2777 146.516 36.1534 146.082 36.1534C145.714 36.1534 145.391 36.2528 145.113 36.4517C144.834 36.6473 144.617 36.929 144.461 37.2969C144.309 37.6648 144.233 38.1056 144.233 38.6193C144.233 39.1397 144.309 39.5871 144.461 39.9616C144.614 40.3329 144.828 40.6196 145.103 40.8217C145.381 41.0206 145.708 41.12 146.082 41.12C146.347 41.12 146.584 41.0703 146.793 40.9709C147.005 40.8681 147.182 40.7206 147.325 40.5284C147.468 40.3362 147.565 40.1025 147.618 39.8274H149.339C149.295 40.3677 149.136 40.8466 148.861 41.2642C148.586 41.6785 148.212 42.0033 147.738 42.2386C147.264 42.4706 146.707 42.5866 146.067 42.5866ZM156.852 36.8196L155.211 36.9986C155.165 36.8329 155.084 36.6771 154.968 36.5312C154.855 36.3854 154.702 36.2678 154.51 36.1783C154.318 36.0888 154.083 36.044 153.804 36.044C153.43 36.044 153.115 36.1252 152.86 36.2876C152.608 36.45 152.483 36.6605 152.487 36.919C152.483 37.1411 152.565 37.3217 152.73 37.4609C152.899 37.6001 153.178 37.7145 153.566 37.804L154.868 38.0824C155.591 38.2382 156.128 38.4851 156.479 38.8232C156.834 39.1612 157.013 39.6037 157.016 40.1506C157.013 40.6312 156.872 41.0554 156.593 41.4233C156.318 41.7879 155.935 42.0729 155.445 42.2784C154.954 42.4839 154.391 42.5866 153.755 42.5866C152.82 42.5866 152.068 42.3911 151.497 42C150.927 41.6056 150.588 41.0571 150.478 40.3544L152.233 40.1854C152.313 40.5301 152.482 40.7902 152.74 40.9659C152.999 41.1416 153.335 41.2294 153.75 41.2294C154.177 41.2294 154.52 41.1416 154.779 40.9659C155.041 40.7902 155.171 40.5732 155.171 40.3146C155.171 40.0959 155.087 39.9152 154.918 39.7727C154.752 39.6302 154.494 39.5208 154.142 39.4446L152.84 39.1712C152.107 39.0187 151.565 38.7618 151.214 38.4006C150.863 38.036 150.689 37.5753 150.692 37.0185C150.689 36.5478 150.816 36.1402 151.075 35.7955C151.337 35.4474 151.7 35.179 152.164 34.9901C152.631 34.7978 153.17 34.7017 153.779 34.7017C154.674 34.7017 155.379 34.8923 155.892 35.2734C156.409 35.6546 156.729 36.17 156.852 36.8196Z" fill="#41576C"/>
<path d="M104.825 138.706C104.742 138.438 104.628 138.197 104.482 137.985C104.34 137.77 104.167 137.586 103.965 137.433C103.766 137.281 103.538 137.167 103.279 137.09C103.021 137.011 102.739 136.971 102.434 136.971C101.887 136.971 101.4 137.109 100.972 137.384C100.545 137.659 100.208 138.063 99.9631 138.597C99.7211 139.127 99.6001 139.773 99.6001 140.536C99.6001 141.305 99.7211 141.956 99.9631 142.489C100.205 143.023 100.541 143.429 100.972 143.707C101.403 143.983 101.904 144.12 102.474 144.12C102.991 144.12 103.438 144.021 103.816 143.822C104.197 143.623 104.491 143.341 104.696 142.977C104.902 142.609 105.004 142.178 105.004 141.684L105.422 141.749H102.658V140.307H106.789V141.53C106.789 142.402 106.603 143.156 106.232 143.792C105.861 144.428 105.351 144.919 104.701 145.264C104.051 145.605 103.306 145.776 102.464 145.776C101.526 145.776 100.702 145.565 99.9929 145.144C99.2869 144.72 98.7351 144.118 98.3374 143.34C97.9429 142.557 97.7457 141.629 97.7457 140.556C97.7457 139.734 97.8617 138.999 98.0938 138.353C98.3291 137.707 98.6572 137.158 99.0781 136.707C99.4991 136.253 99.9929 135.909 100.56 135.673C101.126 135.435 101.743 135.315 102.409 135.315C102.973 135.315 103.498 135.398 103.985 135.564C104.472 135.726 104.905 135.958 105.283 136.26C105.664 136.562 105.977 136.92 106.222 137.334C106.468 137.748 106.628 138.206 106.705 138.706H104.825ZM111.824 145.786C111.078 145.786 110.432 145.622 109.885 145.293C109.338 144.965 108.914 144.506 108.612 143.916C108.314 143.326 108.165 142.637 108.165 141.848C108.165 141.059 108.314 140.368 108.612 139.775C108.914 139.182 109.338 138.721 109.885 138.393C110.432 138.065 111.078 137.901 111.824 137.901C112.57 137.901 113.216 138.065 113.763 138.393C114.31 138.721 114.732 139.182 115.031 139.775C115.332 140.368 115.483 141.059 115.483 141.848C115.483 142.637 115.332 143.326 115.031 143.916C114.732 144.506 114.31 144.965 113.763 145.293C113.216 145.622 112.57 145.786 111.824 145.786ZM111.834 144.344C112.238 144.344 112.576 144.233 112.848 144.011C113.12 143.785 113.322 143.484 113.455 143.106C113.591 142.728 113.659 142.307 113.659 141.843C113.659 141.376 113.591 140.953 113.455 140.575C113.322 140.194 113.12 139.891 112.848 139.666C112.576 139.44 112.238 139.328 111.834 139.328C111.42 139.328 111.075 139.44 110.8 139.666C110.528 139.891 110.324 140.194 110.188 140.575C110.056 140.953 109.99 141.376 109.99 141.843C109.99 142.307 110.056 142.728 110.188 143.106C110.324 143.484 110.528 143.785 110.8 144.011C111.075 144.233 111.42 144.344 111.834 144.344ZM120.342 145.786C119.596 145.786 118.95 145.622 118.403 145.293C117.856 144.965 117.432 144.506 117.13 143.916C116.832 143.326 116.683 142.637 116.683 141.848C116.683 141.059 116.832 140.368 117.13 139.775C117.432 139.182 117.856 138.721 118.403 138.393C118.95 138.065 119.596 137.901 120.342 137.901C121.087 137.901 121.734 138.065 122.281 138.393C122.827 138.721 123.25 139.182 123.548 139.775C123.85 140.368 124.001 141.059 124.001 141.848C124.001 142.637 123.85 143.326 123.548 143.916C123.25 144.506 122.827 144.965 122.281 145.293C121.734 145.622 121.087 145.786 120.342 145.786ZM120.352 144.344C120.756 144.344 121.094 144.233 121.366 144.011C121.638 143.785 121.84 143.484 121.972 143.106C122.108 142.728 122.176 142.307 122.176 141.843C122.176 141.376 122.108 140.953 121.972 140.575C121.84 140.194 121.638 139.891 121.366 139.666C121.094 139.44 120.756 139.328 120.352 139.328C119.937 139.328 119.593 139.44 119.317 139.666C119.046 139.891 118.842 140.194 118.706 140.575C118.573 140.953 118.507 141.376 118.507 141.843C118.507 142.307 118.573 142.728 118.706 143.106C118.842 143.484 119.046 143.785 119.317 144.011C119.593 144.233 119.937 144.344 120.352 144.344ZM128.849 148.659C128.203 148.659 127.648 148.571 127.184 148.396C126.72 148.223 126.347 147.991 126.065 147.7C125.783 147.408 125.588 147.085 125.479 146.73L127.099 146.337C127.172 146.487 127.278 146.634 127.417 146.78C127.557 146.929 127.744 147.052 127.979 147.148C128.218 147.247 128.518 147.297 128.879 147.297C129.39 147.297 129.812 147.173 130.147 146.924C130.482 146.679 130.649 146.274 130.649 145.711V144.264H130.559C130.467 144.45 130.331 144.64 130.152 144.836C129.976 145.032 129.742 145.196 129.451 145.328C129.162 145.461 128.8 145.527 128.362 145.527C127.775 145.527 127.243 145.39 126.766 145.114C126.292 144.836 125.914 144.422 125.633 143.872C125.354 143.318 125.215 142.625 125.215 141.793C125.215 140.955 125.354 140.247 125.633 139.671C125.914 139.091 126.294 138.651 126.771 138.353C127.248 138.051 127.78 137.901 128.367 137.901C128.814 137.901 129.182 137.977 129.471 138.129C129.762 138.279 129.994 138.459 130.167 138.671C130.339 138.88 130.47 139.077 130.559 139.263H130.659V138H132.434V145.761C132.434 146.414 132.278 146.954 131.966 147.382C131.655 147.809 131.229 148.129 130.689 148.341C130.148 148.553 129.535 148.659 128.849 148.659ZM128.864 144.115C129.245 144.115 129.57 144.022 129.839 143.837C130.107 143.651 130.311 143.384 130.45 143.036C130.589 142.688 130.659 142.271 130.659 141.783C130.659 141.303 130.589 140.882 130.45 140.521C130.314 140.159 130.112 139.879 129.844 139.681C129.578 139.478 129.252 139.377 128.864 139.377C128.463 139.377 128.128 139.482 127.86 139.69C127.591 139.899 127.389 140.186 127.253 140.551C127.117 140.912 127.05 141.323 127.05 141.783C127.05 142.251 127.117 142.66 127.253 143.011C127.393 143.359 127.596 143.631 127.865 143.827C128.137 144.019 128.47 144.115 128.864 144.115ZM136.078 135.455V145.636H134.278V135.455H136.078ZM141.309 145.786C140.544 145.786 139.882 145.627 139.326 145.308C138.772 144.987 138.346 144.533 138.048 143.946C137.75 143.356 137.6 142.662 137.6 141.863C137.6 141.078 137.75 140.388 138.048 139.795C138.35 139.198 138.77 138.734 139.311 138.403C139.851 138.068 140.486 137.901 141.215 137.901C141.685 137.901 142.13 137.977 142.547 138.129C142.968 138.279 143.339 138.511 143.661 138.825C143.986 139.14 144.241 139.541 144.426 140.029C144.612 140.512 144.705 141.089 144.705 141.759V142.31H138.446V141.097H142.98C142.976 140.753 142.902 140.446 142.756 140.178C142.61 139.906 142.406 139.692 142.145 139.536C141.886 139.381 141.584 139.303 141.24 139.303C140.872 139.303 140.549 139.392 140.27 139.571C139.992 139.747 139.775 139.979 139.619 140.267C139.467 140.552 139.389 140.865 139.385 141.207V142.266C139.385 142.71 139.467 143.091 139.629 143.409C139.791 143.724 140.018 143.966 140.31 144.135C140.602 144.301 140.943 144.384 141.334 144.384C141.596 144.384 141.833 144.347 142.045 144.274C142.257 144.198 142.441 144.087 142.597 143.941C142.753 143.795 142.87 143.615 142.95 143.399L144.63 143.588C144.524 144.032 144.322 144.42 144.024 144.752C143.729 145.08 143.351 145.335 142.89 145.517C142.43 145.696 141.903 145.786 141.309 145.786ZM103.538 155.254C103.491 154.819 103.296 154.481 102.951 154.239C102.61 153.998 102.165 153.877 101.619 153.877C101.234 153.877 100.904 153.935 100.629 154.051C100.354 154.167 100.144 154.324 99.9979 154.523C99.852 154.722 99.7775 154.949 99.7741 155.204C99.7741 155.416 99.8222 155.6 99.9183 155.756C100.018 155.912 100.152 156.044 100.321 156.154C100.49 156.26 100.677 156.349 100.883 156.422C101.088 156.495 101.295 156.556 101.504 156.606L102.459 156.845C102.843 156.934 103.213 157.055 103.567 157.207C103.925 157.36 104.245 157.552 104.527 157.784C104.812 158.016 105.037 158.296 105.203 158.624C105.369 158.953 105.452 159.337 105.452 159.778C105.452 160.374 105.299 160.9 104.994 161.354C104.689 161.805 104.249 162.158 103.672 162.413C103.098 162.665 102.404 162.791 101.589 162.791C100.797 162.791 100.109 162.668 99.5256 162.423C98.9455 162.177 98.4915 161.819 98.1634 161.349C97.8385 160.878 97.6629 160.305 97.6364 159.629H99.451C99.4775 159.983 99.5869 160.278 99.7791 160.514C99.9714 160.749 100.222 160.925 100.53 161.041C100.841 161.157 101.189 161.215 101.574 161.215C101.975 161.215 102.326 161.155 102.628 161.036C102.933 160.913 103.171 160.744 103.344 160.529C103.516 160.31 103.604 160.055 103.607 159.763C103.604 159.498 103.526 159.279 103.374 159.107C103.221 158.931 103.007 158.785 102.732 158.669C102.46 158.55 102.142 158.444 101.778 158.351L100.619 158.053C99.7808 157.837 99.1179 157.511 98.6307 157.073C98.1468 156.632 97.9048 156.047 97.9048 155.318C97.9048 154.718 98.0672 154.193 98.392 153.742C98.7202 153.292 99.166 152.942 99.7294 152.693C100.293 152.441 100.931 152.315 101.643 152.315C102.366 152.315 102.999 152.441 103.543 152.693C104.089 152.942 104.519 153.288 104.83 153.732C105.142 154.173 105.303 154.68 105.312 155.254H103.538ZM110.397 162.786C109.632 162.786 108.97 162.627 108.414 162.308C107.86 161.987 107.434 161.533 107.136 160.946C106.838 160.356 106.688 159.662 106.688 158.863C106.688 158.078 106.838 157.388 107.136 156.795C107.437 156.198 107.858 155.734 108.399 155.403C108.939 155.068 109.574 154.901 110.303 154.901C110.773 154.901 111.218 154.977 111.635 155.129C112.056 155.279 112.427 155.511 112.749 155.825C113.074 156.14 113.329 156.541 113.514 157.029C113.7 157.512 113.793 158.089 113.793 158.759V159.31H107.534V158.097H112.068C112.064 157.753 111.99 157.446 111.844 157.178C111.698 156.906 111.494 156.692 111.232 156.536C110.974 156.381 110.672 156.303 110.328 156.303C109.96 156.303 109.637 156.392 109.358 156.571C109.08 156.747 108.863 156.979 108.707 157.267C108.554 157.552 108.477 157.865 108.473 158.207V159.266C108.473 159.71 108.554 160.091 108.717 160.409C108.879 160.724 109.106 160.966 109.398 161.135C109.69 161.301 110.031 161.384 110.422 161.384C110.684 161.384 110.921 161.347 111.133 161.274C111.345 161.198 111.529 161.087 111.685 160.941C111.841 160.795 111.958 160.615 112.038 160.399L113.718 160.588C113.612 161.032 113.41 161.42 113.112 161.752C112.817 162.08 112.439 162.335 111.978 162.517C111.517 162.696 110.99 162.786 110.397 162.786ZM117.513 162.791C117.029 162.791 116.593 162.704 116.205 162.532C115.821 162.356 115.516 162.098 115.29 161.757C115.068 161.415 114.957 160.994 114.957 160.494C114.957 160.063 115.037 159.707 115.196 159.425C115.355 159.143 115.572 158.918 115.847 158.749C116.122 158.58 116.432 158.452 116.777 158.366C117.125 158.276 117.485 158.212 117.856 158.172C118.303 158.126 118.666 158.084 118.945 158.048C119.223 158.008 119.425 157.948 119.551 157.869C119.68 157.786 119.745 157.658 119.745 157.486V157.456C119.745 157.082 119.634 156.792 119.412 156.586C119.19 156.381 118.87 156.278 118.452 156.278C118.012 156.278 117.662 156.374 117.403 156.566C117.148 156.758 116.976 156.985 116.886 157.247L115.206 157.009C115.339 156.545 115.557 156.157 115.862 155.845C116.167 155.53 116.54 155.295 116.981 155.139C117.422 154.98 117.909 154.901 118.442 154.901C118.81 154.901 119.177 154.944 119.541 155.03C119.906 155.116 120.239 155.259 120.54 155.457C120.842 155.653 121.084 155.92 121.266 156.258C121.452 156.596 121.545 157.019 121.545 157.526V162.636H119.815V161.587H119.755C119.646 161.8 119.491 161.998 119.293 162.184C119.097 162.366 118.85 162.514 118.552 162.627C118.257 162.736 117.911 162.791 117.513 162.791ZM117.98 161.468C118.341 161.468 118.655 161.397 118.92 161.254C119.185 161.109 119.389 160.916 119.531 160.678C119.677 160.439 119.75 160.179 119.75 159.897V158.997C119.694 159.044 119.598 159.087 119.462 159.127C119.329 159.166 119.18 159.201 119.014 159.231C118.848 159.261 118.684 159.287 118.522 159.31C118.36 159.334 118.219 159.354 118.099 159.37C117.831 159.407 117.591 159.466 117.379 159.549C117.166 159.632 116.999 159.748 116.876 159.897C116.754 160.043 116.692 160.232 116.692 160.464C116.692 160.795 116.813 161.046 117.055 161.215C117.297 161.384 117.606 161.468 117.98 161.468ZM123.354 162.636V155H125.099V156.273H125.179C125.318 155.832 125.557 155.492 125.895 155.254C126.236 155.012 126.626 154.891 127.063 154.891C127.163 154.891 127.274 154.896 127.396 154.906C127.522 154.912 127.627 154.924 127.71 154.94V156.596C127.633 156.569 127.512 156.546 127.347 156.526C127.184 156.503 127.027 156.492 126.874 156.492C126.546 156.492 126.251 156.563 125.989 156.705C125.731 156.845 125.527 157.038 125.378 157.287C125.229 157.536 125.154 157.822 125.154 158.147V162.636H123.354ZM131.922 162.786C131.159 162.786 130.505 162.618 129.958 162.283C129.414 161.949 128.995 161.486 128.7 160.896C128.408 160.303 128.263 159.62 128.263 158.848C128.263 158.073 128.412 157.388 128.71 156.795C129.008 156.198 129.429 155.734 129.973 155.403C130.52 155.068 131.166 154.901 131.912 154.901C132.532 154.901 133.08 155.015 133.557 155.244C134.038 155.469 134.421 155.789 134.706 156.203C134.991 156.614 135.153 157.095 135.193 157.645H133.473C133.403 157.277 133.238 156.971 132.976 156.725C132.717 156.477 132.371 156.352 131.937 156.352C131.569 156.352 131.246 156.452 130.967 156.651C130.689 156.846 130.472 157.128 130.316 157.496C130.163 157.864 130.087 158.305 130.087 158.818C130.087 159.339 130.163 159.786 130.316 160.161C130.468 160.532 130.682 160.819 130.957 161.021C131.236 161.22 131.562 161.319 131.937 161.319C132.202 161.319 132.439 161.269 132.648 161.17C132.86 161.067 133.037 160.92 133.18 160.727C133.322 160.535 133.42 160.301 133.473 160.026H135.193C135.15 160.567 134.991 161.046 134.716 161.463C134.441 161.877 134.066 162.202 133.592 162.438C133.118 162.67 132.561 162.786 131.922 162.786ZM138.471 158.162V162.636H136.671V152.455H138.431V156.298H138.52C138.699 155.867 138.976 155.527 139.35 155.279C139.728 155.027 140.209 154.901 140.792 154.901C141.323 154.901 141.785 155.012 142.179 155.234C142.574 155.456 142.879 155.781 143.094 156.208C143.313 156.636 143.422 157.158 143.422 157.774V162.636H141.623V158.053C141.623 157.539 141.49 157.14 141.225 156.855C140.963 156.566 140.595 156.422 140.121 156.422C139.803 156.422 139.518 156.492 139.266 156.631C139.017 156.767 138.822 156.964 138.679 157.222C138.54 157.481 138.471 157.794 138.471 158.162ZM157.524 155.89H155.665C155.612 155.585 155.514 155.315 155.371 155.08C155.229 154.841 155.052 154.639 154.839 154.473C154.627 154.307 154.385 154.183 154.114 154.1C153.845 154.014 153.555 153.971 153.244 153.971C152.69 153.971 152.2 154.11 151.772 154.389C151.344 154.664 151.01 155.068 150.768 155.602C150.526 156.132 150.405 156.78 150.405 157.546C150.405 158.324 150.526 158.981 150.768 159.514C151.013 160.045 151.348 160.446 151.772 160.717C152.2 160.986 152.688 161.12 153.239 161.12C153.544 161.12 153.829 161.08 154.094 161.001C154.362 160.918 154.603 160.797 154.815 160.638C155.03 160.479 155.211 160.283 155.357 160.051C155.506 159.819 155.608 159.554 155.665 159.256L157.524 159.266C157.455 159.75 157.304 160.204 157.072 160.628C156.843 161.052 156.543 161.427 156.172 161.752C155.801 162.073 155.366 162.325 154.869 162.507C154.372 162.686 153.82 162.776 153.214 162.776C152.319 162.776 151.52 162.569 150.817 162.154C150.115 161.74 149.561 161.142 149.157 160.359C148.753 159.577 148.55 158.639 148.55 157.546C148.55 156.449 148.754 155.511 149.162 154.732C149.57 153.949 150.125 153.351 150.827 152.937C151.53 152.523 152.326 152.315 153.214 152.315C153.781 152.315 154.308 152.395 154.795 152.554C155.282 152.713 155.716 152.947 156.097 153.255C156.478 153.56 156.792 153.935 157.037 154.379C157.286 154.819 157.448 155.323 157.524 155.89ZM162.465 162.786C161.719 162.786 161.073 162.622 160.526 162.293C159.979 161.965 159.555 161.506 159.253 160.916C158.955 160.326 158.806 159.637 158.806 158.848C158.806 158.059 158.955 157.368 159.253 156.775C159.555 156.182 159.979 155.721 160.526 155.393C161.073 155.065 161.719 154.901 162.465 154.901C163.21 154.901 163.857 155.065 164.404 155.393C164.95 155.721 165.373 156.182 165.671 156.775C165.973 157.368 166.124 158.059 166.124 158.848C166.124 159.637 165.973 160.326 165.671 160.916C165.373 161.506 164.95 161.965 164.404 162.293C163.857 162.622 163.21 162.786 162.465 162.786ZM162.475 161.344C162.879 161.344 163.217 161.233 163.489 161.011C163.761 160.785 163.963 160.484 164.095 160.106C164.231 159.728 164.299 159.307 164.299 158.843C164.299 158.376 164.231 157.953 164.095 157.575C163.963 157.194 163.761 156.891 163.489 156.666C163.217 156.44 162.879 156.328 162.475 156.328C162.06 156.328 161.716 156.44 161.441 156.666C161.169 156.891 160.965 157.194 160.829 157.575C160.696 157.953 160.63 158.376 160.63 158.843C160.63 159.307 160.696 159.728 160.829 160.106C160.965 160.484 161.169 160.785 161.441 161.011C161.716 161.233 162.06 161.344 162.475 161.344ZM169.451 158.162V162.636H167.651V155H169.371V156.298H169.461C169.637 155.87 169.917 155.53 170.301 155.279C170.689 155.027 171.168 154.901 171.738 154.901C172.265 154.901 172.724 155.013 173.115 155.239C173.509 155.464 173.814 155.791 174.03 156.218C174.249 156.646 174.356 157.164 174.353 157.774V162.636H172.553V158.053C172.553 157.542 172.421 157.143 172.156 156.855C171.894 156.566 171.531 156.422 171.067 156.422C170.752 156.422 170.472 156.492 170.227 156.631C169.985 156.767 169.794 156.964 169.655 157.222C169.519 157.481 169.451 157.794 169.451 158.162ZM182.218 157.019L180.577 157.198C180.531 157.032 180.45 156.876 180.334 156.73C180.221 156.584 180.069 156.467 179.876 156.377C179.684 156.288 179.449 156.243 179.17 156.243C178.796 156.243 178.481 156.324 178.226 156.487C177.974 156.649 177.85 156.859 177.853 157.118C177.85 157.34 177.931 157.521 178.097 157.66C178.266 157.799 178.544 157.913 178.932 158.003L180.234 158.281C180.957 158.437 181.494 158.684 181.845 159.022C182.2 159.36 182.379 159.803 182.382 160.35C182.379 160.83 182.238 161.254 181.96 161.622C181.684 161.987 181.302 162.272 180.811 162.477C180.321 162.683 179.757 162.786 179.121 162.786C178.186 162.786 177.434 162.59 176.864 162.199C176.294 161.805 175.954 161.256 175.844 160.553L177.599 160.384C177.679 160.729 177.848 160.989 178.107 161.165C178.365 161.341 178.701 161.428 179.116 161.428C179.543 161.428 179.886 161.341 180.145 161.165C180.407 160.989 180.538 160.772 180.538 160.514C180.538 160.295 180.453 160.114 180.284 159.972C180.118 159.829 179.86 159.72 179.509 159.644L178.206 159.37C177.473 159.218 176.932 158.961 176.58 158.6C176.229 158.235 176.055 157.774 176.058 157.217C176.055 156.747 176.183 156.339 176.441 155.994C176.703 155.646 177.066 155.378 177.53 155.189C177.997 154.997 178.536 154.901 179.146 154.901C180.04 154.901 180.745 155.091 181.259 155.472C181.776 155.854 182.095 156.369 182.218 157.019ZM187.197 162.786C186.451 162.786 185.805 162.622 185.258 162.293C184.711 161.965 184.287 161.506 183.985 160.916C183.687 160.326 183.538 159.637 183.538 158.848C183.538 158.059 183.687 157.368 183.985 156.775C184.287 156.182 184.711 155.721 185.258 155.393C185.805 155.065 186.451 154.901 187.197 154.901C187.943 154.901 188.589 155.065 189.136 155.393C189.683 155.721 190.105 156.182 190.404 156.775C190.705 157.368 190.856 158.059 190.856 158.848C190.856 159.637 190.705 160.326 190.404 160.916C190.105 161.506 189.683 161.965 189.136 162.293C188.589 162.622 187.943 162.786 187.197 162.786ZM187.207 161.344C187.611 161.344 187.949 161.233 188.221 161.011C188.493 160.785 188.695 160.484 188.828 160.106C188.964 159.728 189.032 159.307 189.032 158.843C189.032 158.376 188.964 157.953 188.828 157.575C188.695 157.194 188.493 156.891 188.221 156.666C187.949 156.44 187.611 156.328 187.207 156.328C186.793 156.328 186.448 156.44 186.173 156.666C185.901 156.891 185.697 157.194 185.561 157.575C185.429 157.953 185.363 158.376 185.363 158.843C185.363 159.307 185.429 159.728 185.561 160.106C185.697 160.484 185.901 160.785 186.173 161.011C186.448 161.233 186.793 161.344 187.207 161.344ZM194.183 152.455V162.636H192.384V152.455H194.183ZM199.415 162.786C198.649 162.786 197.988 162.627 197.431 162.308C196.878 161.987 196.452 161.533 196.153 160.946C195.855 160.356 195.706 159.662 195.706 158.863C195.706 158.078 195.855 157.388 196.153 156.795C196.455 156.198 196.876 155.734 197.416 155.403C197.956 155.068 198.591 154.901 199.32 154.901C199.791 154.901 200.235 154.977 200.653 155.129C201.074 155.279 201.445 155.511 201.766 155.825C202.091 156.14 202.346 156.541 202.532 157.029C202.718 157.512 202.81 158.089 202.81 158.759V159.31H196.551V158.097H201.085C201.082 157.753 201.007 157.446 200.862 157.178C200.716 156.906 200.512 156.692 200.25 156.536C199.991 156.381 199.69 156.303 199.345 156.303C198.977 156.303 198.654 156.392 198.376 156.571C198.097 156.747 197.88 156.979 197.724 157.267C197.572 157.552 197.494 157.865 197.491 158.207V159.266C197.491 159.71 197.572 160.091 197.734 160.409C197.897 160.724 198.124 160.966 198.415 161.135C198.707 161.301 199.049 161.384 199.44 161.384C199.701 161.384 199.938 161.347 200.151 161.274C200.363 161.198 200.547 161.087 200.702 160.941C200.858 160.795 200.976 160.615 201.055 160.399L202.736 160.588C202.63 161.032 202.428 161.42 202.129 161.752C201.834 162.08 201.456 162.335 200.996 162.517C200.535 162.696 200.008 162.786 199.415 162.786Z" fill="#41576C"/>
<path d="M103.891 275.528C103.845 275.094 103.649 274.756 103.305 274.514C102.963 274.272 102.519 274.151 101.972 274.151C101.588 274.151 101.258 274.209 100.983 274.325C100.708 274.441 100.497 274.599 100.351 274.798C100.206 274.996 100.131 275.224 100.128 275.479C100.128 275.691 100.176 275.875 100.272 276.031C100.371 276.186 100.506 276.319 100.675 276.428C100.844 276.534 101.031 276.624 101.236 276.697C101.442 276.77 101.649 276.831 101.858 276.881L102.812 277.119C103.197 277.209 103.566 277.33 103.921 277.482C104.279 277.635 104.599 277.827 104.881 278.059C105.166 278.291 105.391 278.571 105.557 278.899C105.722 279.227 105.805 279.612 105.805 280.053C105.805 280.649 105.653 281.175 105.348 281.629C105.043 282.079 104.602 282.432 104.025 282.688C103.452 282.939 102.758 283.065 101.942 283.065C101.15 283.065 100.462 282.943 99.8791 282.697C99.2991 282.452 98.845 282.094 98.5169 281.624C98.1921 281.153 98.0164 280.58 97.9899 279.903H99.8045C99.831 280.258 99.9404 280.553 100.133 280.788C100.325 281.024 100.575 281.199 100.883 281.315C101.195 281.431 101.543 281.489 101.927 281.489C102.328 281.489 102.68 281.43 102.981 281.31C103.286 281.188 103.525 281.019 103.697 280.803C103.87 280.585 103.957 280.329 103.961 280.038C103.957 279.773 103.88 279.554 103.727 279.381C103.575 279.206 103.361 279.06 103.086 278.944C102.814 278.825 102.496 278.719 102.131 278.626L100.973 278.327C100.134 278.112 99.4714 277.786 98.9842 277.348C98.5003 276.907 98.2583 276.322 98.2583 275.593C98.2583 274.993 98.4208 274.468 98.7456 274.017C99.0737 273.566 99.5195 273.217 100.083 272.968C100.646 272.716 101.284 272.59 101.997 272.59C102.72 272.59 103.353 272.716 103.896 272.968C104.443 273.217 104.872 273.563 105.184 274.007C105.495 274.448 105.656 274.955 105.666 275.528H103.891ZM110.751 283.06C109.985 283.06 109.324 282.901 108.767 282.583C108.214 282.262 107.788 281.808 107.489 281.221C107.191 280.631 107.042 279.937 107.042 279.138C107.042 278.352 107.191 277.663 107.489 277.07C107.791 276.473 108.212 276.009 108.752 275.678C109.292 275.343 109.927 275.175 110.656 275.175C111.127 275.175 111.571 275.252 111.989 275.404C112.41 275.553 112.781 275.785 113.102 276.1C113.427 276.415 113.682 276.816 113.868 277.303C114.054 277.787 114.146 278.364 114.146 279.033V279.585H107.887V278.372H112.421C112.418 278.027 112.343 277.721 112.197 277.452C112.052 277.181 111.848 276.967 111.586 276.811C111.327 276.655 111.026 276.577 110.681 276.577C110.313 276.577 109.99 276.667 109.712 276.846C109.433 277.022 109.216 277.254 109.06 277.542C108.908 277.827 108.83 278.14 108.827 278.482V279.541C108.827 279.985 108.908 280.366 109.07 280.684C109.233 280.999 109.46 281.241 109.751 281.41C110.043 281.576 110.384 281.658 110.776 281.658C111.037 281.658 111.274 281.622 111.487 281.549C111.699 281.473 111.883 281.362 112.038 281.216C112.194 281.07 112.312 280.889 112.391 280.674L114.072 280.863C113.966 281.307 113.763 281.695 113.465 282.026C113.17 282.354 112.792 282.61 112.332 282.792C111.871 282.971 111.344 283.06 110.751 283.06ZM115.669 282.911V275.275H117.389V276.572H117.479C117.638 276.135 117.901 275.794 118.269 275.548C118.637 275.3 119.076 275.175 119.586 275.175C120.104 275.175 120.539 275.301 120.894 275.553C121.252 275.802 121.504 276.142 121.65 276.572H121.729C121.898 276.148 122.183 275.81 122.584 275.558C122.989 275.303 123.468 275.175 124.021 275.175C124.724 275.175 125.297 275.398 125.741 275.842C126.185 276.286 126.407 276.934 126.407 277.786V282.911H124.603V278.064C124.603 277.59 124.477 277.244 124.225 277.025C123.973 276.803 123.665 276.692 123.3 276.692C122.866 276.692 122.526 276.828 122.281 277.099C122.039 277.368 121.918 277.718 121.918 278.148V282.911H120.153V277.989C120.153 277.595 120.034 277.28 119.795 277.045C119.56 276.809 119.252 276.692 118.871 276.692C118.612 276.692 118.377 276.758 118.165 276.891C117.952 277.02 117.783 277.204 117.657 277.443C117.532 277.678 117.469 277.953 117.469 278.268V282.911H115.669ZM128.233 282.911V275.275H129.978V276.548H130.058C130.197 276.107 130.436 275.767 130.774 275.528C131.115 275.286 131.505 275.166 131.942 275.166C132.042 275.166 132.153 275.17 132.275 275.18C132.401 275.187 132.506 275.199 132.588 275.215V276.871C132.512 276.844 132.391 276.821 132.225 276.801C132.063 276.778 131.906 276.766 131.753 276.766C131.425 276.766 131.13 276.838 130.868 276.98C130.61 277.119 130.406 277.313 130.257 277.562C130.108 277.81 130.033 278.097 130.033 278.422V282.911H128.233ZM138.651 279.7V275.275H140.451V282.911H138.706V281.554H138.626C138.454 281.982 138.171 282.331 137.776 282.603C137.385 282.875 136.903 283.011 136.33 283.011C135.829 283.011 135.387 282.9 135.002 282.678C134.621 282.452 134.323 282.126 134.107 281.698C133.892 281.267 133.784 280.747 133.784 280.137V275.275H135.584V279.859C135.584 280.343 135.716 280.727 135.982 281.012C136.247 281.297 136.595 281.44 137.026 281.44C137.291 281.44 137.548 281.375 137.796 281.246C138.045 281.117 138.249 280.924 138.408 280.669C138.57 280.411 138.651 280.087 138.651 279.7ZM148.337 277.293L146.697 277.472C146.65 277.307 146.569 277.151 146.453 277.005C146.34 276.859 146.188 276.742 145.996 276.652C145.803 276.563 145.568 276.518 145.29 276.518C144.915 276.518 144.6 276.599 144.345 276.761C144.093 276.924 143.969 277.134 143.972 277.393C143.969 277.615 144.05 277.795 144.216 277.935C144.385 278.074 144.663 278.188 145.051 278.278L146.354 278.556C147.076 278.712 147.613 278.959 147.964 279.297C148.319 279.635 148.498 280.077 148.501 280.624C148.498 281.105 148.357 281.529 148.079 281.897C147.804 282.262 147.421 282.547 146.93 282.752C146.44 282.958 145.876 283.06 145.24 283.06C144.305 283.06 143.553 282.865 142.983 282.474C142.413 282.079 142.073 281.531 141.964 280.828L143.719 280.659C143.798 281.004 143.967 281.264 144.226 281.44C144.484 281.615 144.821 281.703 145.235 281.703C145.662 281.703 146.006 281.615 146.264 281.44C146.526 281.264 146.657 281.047 146.657 280.788C146.657 280.57 146.572 280.389 146.403 280.246C146.238 280.104 145.979 279.995 145.628 279.918L144.325 279.645C143.593 279.492 143.051 279.236 142.699 278.874C142.348 278.51 142.174 278.049 142.177 277.492C142.174 277.022 142.302 276.614 142.56 276.269C142.822 275.921 143.185 275.653 143.649 275.464C144.116 275.272 144.655 275.175 145.265 275.175C146.16 275.175 146.864 275.366 147.378 275.747C147.895 276.128 148.215 276.644 148.337 277.293ZM151.785 278.437V282.911H149.985V272.729H151.745V276.572H151.835C152.014 276.142 152.29 275.802 152.665 275.553C153.043 275.301 153.523 275.175 154.107 275.175C154.637 275.175 155.099 275.286 155.494 275.509C155.888 275.731 156.193 276.055 156.409 276.483C156.627 276.911 156.737 277.433 156.737 278.049V282.911H154.937V278.327C154.937 277.814 154.804 277.414 154.539 277.129C154.277 276.841 153.91 276.697 153.436 276.697C153.117 276.697 152.832 276.766 152.58 276.906C152.332 277.041 152.136 277.239 151.994 277.497C151.855 277.756 151.785 278.069 151.785 278.437Z" fill="#41576C"/>
<g style="mix-blend-mode:multiply" opacity="0.4">
<path d="M97 60H201C228.614 60 251 82.3858 251 110V129C251 156.614 273.386 179 301 179H343" stroke="#26D97F" stroke-width="20"/>
</g>
<g style="mix-blend-mode:multiply" opacity="0.4">
<path d="M97 179H343" stroke="#26D97F" stroke-width="20"/>
</g>
<g style="mix-blend-mode:multiply" opacity="0.4">
<path d="M97 298H201C228.614 298 251 275.614 251 248V229C251 201.386 273.386 179 301 179H343" stroke="#26D97F" stroke-width="20"/>
</g>
<path d="M425.25 178.636C425.25 201.418 406.782 219.886 384 219.886C361.218 219.886 342.75 201.418 342.75 178.636C342.75 155.855 361.218 137.386 384 137.386C406.782 137.386 425.25 155.855 425.25 178.636Z" fill="#26D97F"/>
<path fill-rule="evenodd" clip-rule="evenodd" d="M384 222.636C408.301 222.636 428 202.937 428 178.636C428 154.336 408.301 134.636 384 134.636C359.699 134.636 340 154.336 340 178.636C340 202.937 359.699 222.636 384 222.636ZM399.08 217.043C394.409 218.878 389.322 219.886 384 219.886C361.218 219.886 342.75 201.418 342.75 178.636C342.75 155.855 361.218 137.386 384 137.386C403.784 137.386 420.315 151.315 424.323 169.9L424.14 170.264C421.62 169.13 417.424 167.253 413.824 165.674C413.64 162.565 412.969 160.172 411.849 158.356C410.462 156.107 408.573 155.036 406.851 154.507C404.662 153.835 402.43 153.781 400.387 154.508C398.904 155.036 397.631 155.937 396.617 157.132C396.476 157.109 396.325 157.083 396.165 157.053C394.94 156.821 393.2 156.353 391.231 155.411C389.571 154.617 388.033 153.568 386.478 152.502L386.407 152.453C385.425 151.779 384.374 151.058 383.378 150.513C382.398 149.978 381.105 149.399 379.687 149.399H378.664L377.889 150.068C376.597 151.183 375.366 153.013 374.555 155.034C373.957 156.525 373.518 158.292 373.525 160.147C369.582 162.475 367.21 165.539 365.934 167.187L365.899 167.233C365.559 167.672 365.375 167.906 365.252 168.043C365.051 168.253 364.137 169.005 362.214 169.914C360.333 170.803 357.617 171.78 353.966 172.51C351.892 172.925 350.816 174.596 350.323 175.888C349.807 177.24 349.649 178.813 349.723 180.306C349.852 182.911 350.976 185.635 352.913 188.38C353.966 189.873 355.724 191.84 358.266 192.559C360.925 193.312 364.831 193.713 370.207 194.065C378.266 195.012 382.503 196.799 384.969 198.681C387.395 200.532 388.405 202.674 389.619 205.341L389.665 205.443C390.385 207.024 391.233 208.887 392.562 210.615C394.299 212.873 396.696 215.016 399.08 217.043Z" fill="#213345"/>
<path d="M397.056 159.966C397.056 159.966 394.354 159.953 390.044 157.892L389.583 157.668C384.892 158.232 379.879 159.515 375.827 162.013C371.796 164.105 369.425 167.169 368.072 168.916C367.752 169.33 367.488 169.67 367.274 169.906C366.563 170.671 364.478 172.135 360.788 173.478C362.243 176.767 363.232 182.412 361.932 183.835C360.971 184.888 355.271 184.208 353.283 183.934C353.758 185.106 354.746 186.977 355.512 187.832C357.528 190.083 360.324 191.097 367.156 191.506C372.296 187.443 384.956 190.381 395.286 193.287C399.384 194.44 403.132 195.494 405.928 195.937C417.186 197.719 413.426 186.63 411.29 180.33C411.091 179.743 410.906 179.197 410.748 178.708C408.902 172.965 380.289 179.836 374.444 181.477C368.598 183.118 367.675 177.477 371.982 175.016C374.069 173.824 374.759 172.439 375.511 170.932C376.312 169.327 377.182 167.584 379.879 165.786C385.437 162.08 393.987 160.212 397.056 159.966Z" fill="white"/>
<path d="M381.338 175.834C383.268 175.834 384.832 174.486 384.832 172.822C384.832 171.159 383.268 169.81 381.338 169.81C379.409 169.81 377.845 171.159 377.845 172.822C377.845 174.486 379.409 175.834 381.338 175.834Z" fill="white"/>
<defs>
<clipPath id="clip0_2_51">
<rect width="60" height="60" fill="white" transform="translate(14.9106 250.636)"/>
</clipPath>
</defs>
</svg>
