<svg width="121" height="198" viewBox="0 0 121 198" fill="none" xmlns="http://www.w3.org/2000/svg">
<path fill-rule="evenodd" clip-rule="evenodd" d="M92.9017 50.2439C75.4948 38.2036 56.3314 36.9798 34.9248 38.0553C31.3103 38.2376 22.5036 39.0009 15.9156 41.5506C11.2565 43.3523 7.73747 46.0966 7.49712 49.9689C7.2845 53.3529 9.4816 55.9921 12.9359 57.9514C20.436 62.207 33.9233 63.3164 38.0648 63.3103C56.7196 63.2763 75.5194 59.2618 92.7168 52.0023C93.7768 52.7564 94.8337 53.5537 95.8845 54.3943C99.046 56.9316 102.553 60.2755 104.99 64.0983C107.36 67.813 108.725 71.9851 107.665 76.2994C105.455 85.3018 95.6996 92.1904 83.6636 97.3143C81.0413 98.433 78.3111 99.4622 75.5194 100.411C73.9047 99.3046 72.0682 98.2878 70.056 97.3575C54.4456 90.1383 28.4754 87.9071 20.6271 88.2964C17.1327 88.4695 10.6988 88.7012 6.01502 90.7162C2.66552 92.1563 0.19723 94.4927 0.00926402 98.2012C-0.160214 101.505 2.00911 104.005 5.41099 105.813C12.7571 109.716 25.9394 110.412 30.2287 110.374C39.9814 110.294 58.5808 107.68 75.2975 102.114C78.4868 104.419 80.6006 107.111 80.9981 110.282C81.5528 114.692 78.3512 118.737 73.4487 122.356C71.9696 123.447 70.3364 124.498 68.5954 125.496C68.4321 125.45 68.2719 125.406 68.1086 125.36C54.9848 121.729 38.3575 121.562 31.0299 122.134C27.7236 122.39 21.7672 123.271 17.5333 125.598C14.5135 127.261 12.3689 129.656 12.3812 132.975C12.3935 136.384 14.9696 138.259 18.4361 139.153C23.1661 140.367 29.5416 139.761 31.9081 139.52C38.5732 138.847 56.239 134.183 68.7834 127.162C72.6136 128.296 76.0987 129.748 78.8751 131.606C81.8086 133.562 83.9502 135.966 84.8161 138.936C86.9453 146.264 81.4911 152.42 73.5072 157.25C71.076 158.721 68.4075 160.066 65.625 161.274C63.5512 159.052 60.5715 157.222 57.0802 155.791C48.8528 152.423 37.7905 151.218 29.6186 151.938C26.7991 152.185 21.9459 152.88 18.5718 154.84C16.1313 156.255 14.4519 158.319 14.5782 161.249C14.7292 164.809 17.1266 167.01 20.3867 168.323C24.9226 170.147 31.1501 170.233 34.438 170.31C40.8936 170.459 53.8324 167.887 65.2028 163.128C65.967 164.108 66.537 165.165 66.876 166.308C68.1579 170.61 66.0964 175.972 58.9845 182.613C55.5395 185.827 51.7679 188.674 47.534 190.747C41.4328 193.739 35.0943 195.315 28.4415 196.465C28.0224 196.539 27.739 196.937 27.8129 197.358C27.8838 197.778 28.2844 198.062 28.7034 197.988C35.501 196.814 41.9782 195.191 48.2119 192.135C52.5814 189.993 56.4793 187.06 60.0353 183.744C67.7758 176.516 69.7479 170.548 68.3551 165.866C67.9976 164.67 67.4183 163.552 66.6511 162.507C69.3504 161.32 71.9357 160.007 74.3022 158.573C82.9764 153.325 88.6092 146.461 86.2951 138.504C84.5849 132.626 78.419 128.651 70.5953 126.108C71.9295 125.298 73.1929 124.464 74.3608 123.602C79.7964 119.59 83.1428 114.976 82.5296 110.09C82.1198 106.836 80.12 103.983 77.0293 101.523C79.5037 100.661 81.9288 99.7341 84.2676 98.7359C96.8151 93.3926 106.857 86.0558 109.162 76.6671C110.096 72.8659 109.353 69.1605 107.68 65.7332C105.237 60.7421 100.793 56.3537 96.8458 53.1891C96.0262 52.5308 95.2004 51.8973 94.3715 51.2916C96.2789 50.4572 98.1678 49.5857 100.032 48.6709C104.645 46.4118 110.096 43.5068 114.274 39.6283C117.128 36.9767 119.39 33.8739 120.437 30.2241C121.944 24.9982 120.277 20.548 117.196 16.8796C114.216 13.3287 109.896 10.5195 105.964 8.45508C88.7541 -0.58134 68.4722 -3.08459 50.1501 4.44062C49.7588 4.60132 49.5708 5.05252 49.731 5.4481C49.8913 5.84058 50.3411 6.03222 50.7356 5.86843C68.6293 -1.48062 88.4397 0.99785 105.249 9.82413C109.014 11.7989 113.162 14.4752 116.018 17.8747C118.77 21.1537 120.305 25.1218 118.958 29.7945C117.738 34.0346 114.724 37.4588 111.119 40.2865C107.427 43.1823 103.107 45.4476 99.3542 47.2833C97.2311 48.3217 95.0772 49.3106 92.9017 50.2439ZM64.1181 161.914C62.2107 160.025 59.5546 158.474 56.4978 157.222C48.4861 153.94 37.7135 152.775 29.7542 153.477C27.098 153.712 22.519 154.33 19.3451 156.175C17.4193 157.293 16.0172 158.873 16.1158 161.184C16.2422 164.095 18.2944 165.814 20.9629 166.889C25.3231 168.641 31.3134 168.691 34.4749 168.765C40.7056 168.907 53.1021 166.45 64.1181 161.914ZM66.6541 126.568C53.8909 123.262 38.1788 123.126 31.147 123.673C27.9978 123.917 22.3095 124.733 18.2728 126.955C15.78 128.324 13.9096 130.227 13.9219 132.969C13.9311 135.642 16.1004 136.955 18.8182 137.654C23.3602 138.822 29.483 138.213 31.754 137.984C38.0678 137.345 54.4456 133.064 66.6541 126.568ZM73.6644 101.023C72.3702 100.219 70.9404 99.4683 69.4121 98.7606C54.0296 91.6464 28.4354 89.4554 20.7041 89.8386C17.3361 90.0055 11.1363 90.197 6.62205 92.1378C3.83953 93.3307 1.70411 95.2004 1.54696 98.2816C1.4576 100.046 2.2464 101.499 3.58065 102.707C5.02584 104.021 7.09038 105.043 9.43534 105.859C16.7013 108.387 26.6389 108.86 30.2164 108.829C39.6424 108.752 57.4284 106.277 73.6644 101.023ZM91.2069 50.9609C74.3115 39.6437 55.7151 38.5559 35.0018 39.5974C31.4798 39.7766 22.8919 40.5091 16.4702 42.9907C14.3964 43.7942 12.5506 44.7738 11.201 45.9946C9.94993 47.1287 9.13335 48.4639 9.03474 50.0647C8.92073 51.8973 9.72195 53.4301 11.087 54.7281C12.563 56.1281 14.6738 57.253 17.0711 58.1678C24.485 60.9956 34.6106 61.7712 38.0617 61.765C56.1835 61.7311 74.4471 57.8989 91.2069 50.9609Z" fill="#D93688"/>
</svg>
